<?xml version="1.0" encoding="UTF-8" standalone="no"?> <svg width="64" height="64" viewBox="0 0 64 64" fill="none" xmlns="http://www.w3.org/2000/svg">
<path d="M42 20H38V24H42V20Z" fill="#BDDBFF"/>
<path d="M35.41 53.59C35.598 53.7733 35.7471 53.9927 35.8485 54.2349C35.9499 54.4772 36.0014 54.7374 36 55C35.9984 55.5299 35.7872 56.0377 35.4125 56.4125C35.0377 56.7872 34.5299 56.9984 34 57H30C29.4708 56.9961 28.9643 56.7841 28.5901 56.4099C28.2159 56.0356 28.0039 55.5292 28 55C28.0016 54.4701 28.2128 53.9623 28.5875 53.5875C28.9623 53.2128 29.4701 53.0016 30 53H34C34.2626 52.9986 34.5228 53.0501 34.765 53.1515C35.0073 53.2529 35.2266 53.402 35.41 53.59V53.59Z" fill="#BDDBFF"/>
<path d="M26 36H22V40H26V36Z" fill="#BDDBFF"/>
<path d="M26 20H22V24H26V20Z" fill="#BDDBFF"/>
<path d="M46 2H18C16.4092 2.00159 14.884 2.63424 13.7591 3.75911C12.6342 4.88399 12.0016 6.40919 12 8V56C12.0016 57.5908 12.6342 59.116 13.7591 60.2409C14.884 61.3658 16.4092 61.9984 18 62H46C47.5908 61.9984 49.116 61.3658 50.2409 60.2409C51.3658 59.116 51.9984 57.5908 52 56V8C51.9984 6.40919 51.3658 4.88399 50.2409 3.75911C49.116 2.63424 47.5908 2.00159 46 2V2ZM50 56C50 57.0609 49.5786 58.0783 48.8284 58.8284C48.0783 59.5786 47.0609 60 46 60H18C16.9391 60 15.9217 59.5786 15.1716 58.8284C14.4214 58.0783 14 57.0609 14 56V8C14 6.93913 14.4214 5.92172 15.1716 5.17157C15.9217 4.42143 16.9391 4 18 4H46C47.0609 4 48.0783 4.42143 48.8284 5.17157C49.5786 5.92172 50 6.93913 50 8V56Z" fill="#3D9AE2"/>
<path d="M34 52H30C29.2044 52 28.4413 52.3161 27.8787 52.8787C27.3161 53.4413 27 54.2044 27 55C27 55.7956 27.3161 56.5587 27.8787 57.1213C28.4413 57.6839 29.2044 58 30 58H34C34.7956 58 35.5587 57.6839 36.1213 57.1213C36.6839 56.5587 37 55.7956 37 55C37 54.2044 36.6839 53.4413 36.1213 52.8787C35.5587 52.3161 34.7956 52 34 52ZM34 56H30C29.7348 56 29.4804 55.8946 29.2929 55.7071C29.1054 55.5196 29 55.2652 29 55C29 54.7348 29.1054 54.4804 29.2929 54.2929C29.4804 54.1054 29.7348 54 30 54H34C34.2652 54 34.5196 54.1054 34.7071 54.2929C34.8946 54.4804 35 54.7348 35 55C35 55.2652 34.8946 55.5196 34.7071 55.7071C34.5196 55.8946 34.2652 56 34 56Z" fill="#3D9AE2"/>
<path d="M27 6H25V8H27V6Z" fill="#3D9AE2"/>
<path d="M35 6H29V8H35V6Z" fill="#3D9AE2"/>
<path d="M22 25H26C26.2652 25 26.5196 24.8946 26.7071 24.7071C26.8946 24.5196 27 24.2652 27 24V20C27 19.7348 26.8946 19.4804 26.7071 19.2929C26.5196 19.1054 26.2652 19 26 19H22C21.7348 19 21.4804 19.1054 21.2929 19.2929C21.1054 19.4804 21 19.7348 21 20V24C21 24.2652 21.1054 24.5196 21.2929 24.7071C21.4804 24.8946 21.7348 25 22 25ZM23 21H25V23H23V21Z" fill="#3D9AE2"/>
<path d="M42 19H38C37.7348 19 37.4804 19.1054 37.2929 19.2929C37.1054 19.4804 37 19.7348 37 20V24C37 24.2652 37.1054 24.5196 37.2929 24.7071C37.4804 24.8946 37.7348 25 38 25H42C42.2652 25 42.5196 24.8946 42.7071 24.7071C42.8946 24.5196 43 24.2652 43 24V20C43 19.7348 42.8946 19.4804 42.7071 19.2929C42.5196 19.1054 42.2652 19 42 19ZM41 23H39V21H41V23Z" fill="#3D9AE2"/>
<path d="M27 36C27 35.7348 26.8946 35.4804 26.7071 35.2929C26.5196 35.1054 26.2652 35 26 35H22C21.7348 35 21.4804 35.1054 21.2929 35.2929C21.1054 35.4804 21 35.7348 21 36V40C21 40.2652 21.1054 40.5196 21.2929 40.7071C21.4804 40.8946 21.7348 41 22 41H26C26.2652 41 26.5196 40.8946 26.7071 40.7071C26.8946 40.5196 27 40.2652 27 40V36ZM25 39H23V37H25V39Z" fill="#3D9AE2"/>
<path d="M23 31H25V33H27V31H30V29H28V27H26V29H23V27H21V33H23V31Z" fill="#3D9AE2"/>
<path d="M41 39H39V41H42C42.2652 41 42.5196 40.8946 42.7071 40.7071C42.8946 40.5196 43 40.2652 43 40V37H41V39Z" fill="#3D9AE2"/>
<path d="M34 37H35V35H34V32H32V35H29V37H32V39H29V41H37V39H34V37Z" fill="#3D9AE2"/>
<path d="M43 27H41V35H43V27Z" fill="#3D9AE2"/>
<path d="M35 28H32V30H35V28Z" fill="#3D9AE2"/>
<path d="M39 35H37V37H39V35Z" fill="#3D9AE2"/>
<path d="M31 26H33V25H35V23H33V21H35V19H29V21H31V26Z" fill="#3D9AE2"/>
<path d="M39 28H37V33H39V28Z" fill="#3D9AE2"/>
</svg>
