<svg xmlns="http://www.w3.org/2000/svg" xmlns:xlink="http://www.w3.org/1999/xlink" width="1920" zoomAndPan="magnify" viewBox="0 0 1440 809.999993" height="1080" preserveAspectRatio="xMidYMid meet" version="1.0"><defs><clipPath id="id1"><path d="M 480.195312 207 L 781 207 L 781 568 L 480.195312 568 Z M 480.195312 207 " clip-rule="nonzero"/></clipPath><clipPath id="id2"><path d="M 555 162.417969 L 706 162.417969 L 706 223 L 555 223 Z M 555 162.417969 " clip-rule="nonzero"/></clipPath><clipPath id="id3"><path d="M 720 402 L 915.195312 402 L 915.195312 597.417969 L 720 597.417969 Z M 720 402 " clip-rule="nonzero"/></clipPath></defs><g clip-path="url(#id1)"><path fill="#bf693b" d="M 750.195312 207.417969 C 766.777344 207.417969 780.195312 220.835938 780.195312 237.417969 L 780.195312 537.417969 C 780.195312 553.96875 766.777344 567.417969 750.195312 567.417969 L 510.195312 567.417969 C 493.640625 567.417969 480.195312 553.96875 480.195312 537.417969 L 480.195312 237.417969 C 480.195312 220.835938 493.640625 207.417969 510.195312 207.417969 L 750.195312 207.417969 " fill-opacity="1" fill-rule="nonzero"/></g><path fill="#eceff1" d="M 750.195312 207.417969 L 750.195312 537.417969 L 517.695312 537.417969 C 513.5625 537.417969 510.195312 534.046875 510.195312 529.917969 L 510.195312 207.417969 L 750.195312 207.417969 " fill-opacity="1" fill-rule="nonzero"/><g clip-path="url(#id2)"><path fill="#fac342" d="M 705.195312 207.417969 C 705.195312 211.546875 703.554688 215.296875 700.769531 217.992188 C 698.074219 220.777344 694.324219 222.417969 690.195312 222.417969 L 570.195312 222.417969 C 561.960938 222.417969 555.195312 215.679688 555.195312 207.417969 C 555.195312 203.285156 556.835938 199.535156 559.617188 196.839844 C 562.3125 194.058594 566.0625 192.417969 570.195312 192.417969 L 592.695312 192.417969 L 592.695312 177.417969 C 592.695312 169.15625 599.460938 162.417969 607.695312 162.417969 L 652.695312 162.417969 C 660.925781 162.417969 667.695312 169.15625 667.695312 177.417969 L 667.695312 192.417969 L 690.195312 192.417969 C 698.425781 192.417969 705.195312 199.15625 705.195312 207.417969 " fill-opacity="1" fill-rule="nonzero"/></g><path fill="#adb5c3" d="M 577.695312 304.917969 L 547.695312 304.917969 C 543.5625 304.917969 540.195312 301.546875 540.195312 297.417969 L 540.195312 267.417969 C 540.195312 263.285156 543.5625 259.917969 547.695312 259.917969 L 577.695312 259.917969 C 581.824219 259.917969 585.195312 263.285156 585.195312 267.417969 L 585.195312 297.417969 C 585.195312 301.546875 581.824219 304.917969 577.695312 304.917969 " fill-opacity="1" fill-rule="nonzero"/><path fill="#adb5c3" d="M 577.695312 379.917969 L 547.695312 379.917969 C 543.5625 379.917969 540.195312 376.546875 540.195312 372.417969 L 540.195312 342.417969 C 540.195312 338.285156 543.5625 334.917969 547.695312 334.917969 L 577.695312 334.917969 C 581.824219 334.917969 585.195312 338.285156 585.195312 342.417969 L 585.195312 372.417969 C 585.195312 376.546875 581.824219 379.917969 577.695312 379.917969 " fill-opacity="1" fill-rule="nonzero"/><path fill="#adb5c3" d="M 577.695312 454.917969 L 547.695312 454.917969 C 543.5625 454.917969 540.195312 451.546875 540.195312 447.417969 L 540.195312 417.417969 C 540.195312 413.285156 543.5625 409.917969 547.695312 409.917969 L 577.695312 409.917969 C 581.824219 409.917969 585.195312 413.285156 585.195312 417.417969 L 585.195312 447.417969 C 585.195312 451.546875 581.824219 454.917969 577.695312 454.917969 " fill-opacity="1" fill-rule="nonzero"/><g clip-path="url(#id3)"><path fill="#98a2ab" d="M 911.238281 512.953125 C 913.203125 512.164062 914.636719 510.375 914.84375 508.238281 C 915.078125 505.484375 915.195312 502.699219 915.195312 499.917969 C 915.195312 497.132812 915.078125 494.351562 914.84375 491.597656 C 914.636719 489.457031 913.203125 487.671875 911.238281 486.878906 L 895.535156 480.582031 C 893.574219 472.730469 890.496094 465.316406 886.394531 458.550781 L 893.074219 442.964844 C 893.894531 441.03125 893.632812 438.746094 892.285156 437.132812 C 890.496094 434.996094 888.621094 432.945312 886.628906 430.980469 C 884.667969 428.988281 882.617188 427.113281 880.476562 425.328125 C 878.867188 423.980469 876.582031 423.714844 874.648438 424.535156 L 859.0625 431.214844 C 852.292969 427.113281 844.882812 424.039062 837.03125 422.074219 L 830.730469 406.371094 C 829.941406 404.410156 828.152344 402.972656 826.015625 402.769531 C 823.261719 402.535156 820.476562 402.417969 817.695312 402.417969 C 814.910156 402.417969 812.128906 402.535156 809.375 402.769531 C 807.234375 402.972656 805.449219 404.410156 804.65625 406.371094 L 798.359375 422.074219 C 790.507812 424.039062 783.09375 427.113281 776.328125 431.214844 L 760.742188 424.535156 C 758.808594 423.714844 756.523438 423.980469 754.910156 425.328125 C 752.773438 427.113281 750.722656 428.988281 748.757812 430.980469 C 746.765625 432.945312 744.890625 434.996094 743.105469 437.132812 C 741.757812 438.746094 741.492188 441.03125 742.3125 442.964844 L 748.992188 458.550781 C 744.890625 465.316406 741.816406 472.730469 739.851562 480.582031 L 724.148438 486.878906 C 722.1875 487.671875 720.75 489.457031 720.546875 491.597656 C 720.3125 494.351562 720.195312 497.132812 720.195312 499.917969 C 720.195312 502.699219 720.3125 505.484375 720.546875 508.238281 C 720.75 510.375 722.1875 512.164062 724.148438 512.953125 L 739.851562 519.253906 C 741.816406 527.105469 744.890625 534.515625 748.992188 541.253906 L 742.3125 556.871094 C 741.492188 558.804688 741.757812 561.089844 743.105469 562.699219 C 744.890625 564.839844 746.765625 566.890625 748.757812 568.851562 C 750.722656 570.84375 752.773438 572.71875 754.910156 574.507812 C 756.523438 575.855469 758.808594 576.117188 760.742188 575.296875 L 776.328125 568.617188 C 783.09375 572.71875 790.507812 575.796875 798.359375 577.757812 L 804.65625 593.492188 C 805.449219 595.453125 807.234375 596.859375 809.375 597.035156 C 812.128906 597.300781 814.910156 597.417969 817.695312 597.417969 C 820.476562 597.417969 823.261719 597.300781 826.015625 597.035156 C 828.152344 596.859375 829.941406 595.453125 830.730469 593.492188 L 837.03125 577.757812 C 844.882812 575.796875 852.292969 572.71875 859.0625 568.617188 L 874.648438 575.296875 C 876.582031 576.117188 878.867188 575.855469 880.476562 574.507812 C 882.617188 572.71875 884.667969 570.84375 886.628906 568.851562 C 888.621094 566.890625 890.496094 564.839844 892.285156 562.699219 C 893.632812 561.089844 893.894531 558.804688 893.074219 556.871094 L 886.394531 541.253906 C 890.496094 534.515625 893.574219 527.105469 895.535156 519.253906 L 911.238281 512.953125 " fill-opacity="1" fill-rule="nonzero"/></g><path fill="#7b8698" d="M 870.195312 499.917969 C 870.195312 528.921875 846.699219 552.417969 817.695312 552.417969 C 788.691406 552.417969 765.195312 528.921875 765.195312 499.917969 C 765.195312 470.914062 788.691406 447.417969 817.695312 447.417969 C 846.699219 447.417969 870.195312 470.914062 870.195312 499.917969 " fill-opacity="1" fill-rule="nonzero"/><path fill="#98a2ab" d="M 817.695312 522.417969 C 805.273438 522.417969 795.195312 512.339844 795.195312 499.917969 C 795.195312 487.496094 805.273438 477.417969 817.695312 477.417969 C 830.117188 477.417969 840.195312 487.496094 840.195312 499.917969 C 840.195312 512.339844 830.117188 522.417969 817.695312 522.417969 " fill-opacity="1" fill-rule="nonzero"/><path fill="#d2a53e" d="M 592.695312 177.417969 L 630.195312 177.417969 C 634.324219 177.417969 637.695312 180.785156 637.695312 184.917969 C 637.695312 189.046875 634.324219 192.417969 630.195312 192.417969 L 592.695312 192.417969 L 592.695312 177.417969 " fill-opacity="1" fill-rule="nonzero"/><path fill="#49c08e" d="M 690.195312 312.417969 C 688.203125 312.417969 686.296875 311.625 684.890625 310.21875 L 669.890625 295.21875 C 666.960938 292.289062 666.960938 287.542969 669.890625 284.613281 C 672.820312 281.683594 677.566406 281.683594 680.496094 284.613281 L 689.023438 293.140625 L 713.953125 255.757812 C 716.238281 252.300781 720.898438 251.363281 724.355469 253.675781 C 727.8125 255.960938 728.75 260.621094 726.433594 264.078125 L 696.433594 309.078125 C 695.175781 310.953125 693.183594 312.152344 690.925781 312.386719 C 690.691406 312.417969 690.429688 312.417969 690.195312 312.417969 " fill-opacity="1" fill-rule="nonzero"/><path fill="#7b8698" d="M 652.695312 274.917969 L 615.195312 274.917969 C 611.0625 274.917969 607.695312 271.546875 607.695312 267.417969 C 607.695312 263.285156 611.0625 259.917969 615.195312 259.917969 L 652.695312 259.917969 C 656.824219 259.917969 660.195312 263.285156 660.195312 267.417969 C 660.195312 271.546875 656.824219 274.917969 652.695312 274.917969 " fill-opacity="1" fill-rule="nonzero"/><path fill="#7b8698" d="M 637.695312 304.917969 L 615.195312 304.917969 C 611.0625 304.917969 607.695312 301.546875 607.695312 297.417969 C 607.695312 293.285156 611.0625 289.917969 615.195312 289.917969 L 637.695312 289.917969 C 641.824219 289.917969 645.195312 293.285156 645.195312 297.417969 C 645.195312 301.546875 641.824219 304.917969 637.695312 304.917969 " fill-opacity="1" fill-rule="nonzero"/><path fill="#49c08e" d="M 690.195312 387.417969 C 688.203125 387.417969 686.296875 386.625 684.890625 385.21875 L 669.890625 370.21875 C 666.960938 367.289062 666.960938 362.542969 669.890625 359.613281 C 672.820312 356.683594 677.566406 356.683594 680.496094 359.613281 L 689.023438 368.140625 L 713.953125 330.757812 C 716.238281 327.300781 720.898438 326.363281 724.355469 328.675781 C 727.8125 330.960938 728.75 335.621094 726.433594 339.078125 L 696.433594 384.078125 C 695.175781 385.953125 693.183594 387.152344 690.925781 387.386719 C 690.691406 387.417969 690.429688 387.417969 690.195312 387.417969 " fill-opacity="1" fill-rule="nonzero"/><path fill="#7b8698" d="M 652.695312 349.917969 L 615.195312 349.917969 C 611.0625 349.917969 607.695312 346.546875 607.695312 342.417969 C 607.695312 338.285156 611.0625 334.917969 615.195312 334.917969 L 652.695312 334.917969 C 656.824219 334.917969 660.195312 338.285156 660.195312 342.417969 C 660.195312 346.546875 656.824219 349.917969 652.695312 349.917969 " fill-opacity="1" fill-rule="nonzero"/><path fill="#7b8698" d="M 637.695312 379.917969 L 615.195312 379.917969 C 611.0625 379.917969 607.695312 376.546875 607.695312 372.417969 C 607.695312 368.285156 611.0625 364.917969 615.195312 364.917969 L 637.695312 364.917969 C 641.824219 364.917969 645.195312 368.285156 645.195312 372.417969 C 645.195312 376.546875 641.824219 379.917969 637.695312 379.917969 " fill-opacity="1" fill-rule="nonzero"/><path fill="#49c08e" d="M 690.195312 462.417969 C 688.203125 462.417969 686.296875 461.625 684.890625 460.21875 L 669.890625 445.21875 C 666.960938 442.289062 666.960938 437.542969 669.890625 434.613281 C 672.820312 431.683594 677.566406 431.683594 680.496094 434.613281 L 689.023438 443.140625 L 713.953125 405.757812 C 716.238281 402.300781 720.898438 401.363281 724.355469 403.675781 C 727.8125 405.960938 728.75 410.621094 726.433594 414.078125 L 696.433594 459.078125 C 695.175781 460.953125 693.183594 462.152344 690.925781 462.386719 C 690.691406 462.386719 690.429688 462.417969 690.195312 462.417969 " fill-opacity="1" fill-rule="nonzero"/><path fill="#7b8698" d="M 652.695312 424.917969 L 615.195312 424.917969 C 611.0625 424.917969 607.695312 421.546875 607.695312 417.417969 C 607.695312 413.285156 611.0625 409.917969 615.195312 409.917969 L 652.695312 409.917969 C 656.824219 409.917969 660.195312 413.285156 660.195312 417.417969 C 660.195312 421.546875 656.824219 424.917969 652.695312 424.917969 " fill-opacity="1" fill-rule="nonzero"/><path fill="#7b8698" d="M 637.695312 454.917969 L 615.195312 454.917969 C 611.0625 454.917969 607.695312 451.546875 607.695312 447.417969 C 607.695312 443.285156 611.0625 439.917969 615.195312 439.917969 L 637.695312 439.917969 C 641.824219 439.917969 645.195312 443.285156 645.195312 447.417969 C 645.195312 451.546875 641.824219 454.917969 637.695312 454.917969 " fill-opacity="1" fill-rule="nonzero"/><path fill="#ced5dc" d="M 675.195312 514.917969 L 577.695312 514.917969 C 573.5625 514.917969 570.195312 511.546875 570.195312 507.417969 C 570.195312 503.285156 573.5625 499.917969 577.695312 499.917969 L 675.195312 499.917969 C 679.324219 499.917969 682.695312 503.285156 682.695312 507.417969 C 682.695312 511.546875 679.324219 514.917969 675.195312 514.917969 " fill-opacity="1" fill-rule="nonzero"/></svg>