<?xml version="1.0" standalone="no"?>
<!DOCTYPE svg PUBLIC "-//W3C//DTD SVG 20010904//EN"
 "http://www.w3.org/TR/2001/REC-SVG-20010904/DTD/svg10.dtd">
<svg version="1.0" xmlns="http://www.w3.org/2000/svg"
 width="4096.000000pt" height="4095.000000pt" viewBox="0 0 4096.000000 4095.000000"
 preserveAspectRatio="xMidYMid meet">

<g transform="translate(0.000000,4095.000000) scale(0.100000,-0.100000)"
fill="#000000" stroke="none">
<path d="M4360 25579 c-406 -234 -575 -331 -578 -334 -3 -3 25 -195 48 -325
10 -58 24 -140 31 -183 l12 -78 -129 -130 c-83 -83 -136 -129 -149 -128 -11 0
-87 28 -170 62 l-150 62 3 321 3 322 -33 11 c-18 7 -96 34 -173 61 -77 27
-198 70 -270 95 -71 26 -174 62 -228 80 l-98 34 -370 -316 c-203 -174 -369
-322 -369 -329 0 -7 16 -50 36 -96 112 -261 292 -790 358 -1053 89 -356 110
-505 110 -770 0 -245 -12 -344 -69 -569 -18 -72 -56 -219 -83 -326 -108 -420
-145 -738 -145 -1245 0 -572 30 -799 186 -1391 100 -375 111 -447 111 -714 1
-265 -20 -415 -105 -755 -72 -289 -221 -733 -354 -1055 -25 -60 -45 -113 -45
-118 0 -5 154 -141 343 -302 188 -162 354 -305 369 -318 l27 -25 203 73 c112
39 248 87 303 106 55 19 134 48 175 63 41 16 85 32 98 36 l23 7 -3 321 -3 322
85 33 c47 18 110 43 140 57 105 45 90 51 238 -95 72 -73 132 -137 132 -144 0
-7 -4 -37 -10 -67 -38 -217 -80 -482 -80 -503 0 -2 19 -15 43 -28 23 -14 210
-125 415 -247 206 -122 379 -220 386 -218 6 3 90 52 186 109 96 57 280 166
408 242 159 96 232 144 232 156 0 10 -5 42 -10 71 -6 30 -26 153 -45 274 l-35
220 135 135 135 134 42 -16 c115 -45 226 -90 257 -104 l34 -15 -8 -318 -7
-318 58 -21 c33 -11 124 -44 204 -72 80 -28 201 -71 270 -95 69 -24 158 -56
199 -70 72 -26 73 -26 95 -7 11 10 147 126 301 257 154 132 312 267 351 302
l72 63 -38 88 c-114 265 -275 738 -351 1027 -85 326 -116 510 -126 755 -8 203
27 479 87 680 41 138 130 510 149 625 21 124 47 335 59 485 9 107 9 744 0 825
-43 393 -66 527 -132 780 -24 94 -62 240 -84 325 -134 517 -104 918 125 1665
70 229 251 724 298 814 l15 30 -347 298 c-192 164 -360 308 -375 321 l-27 23
-123 -45 c-121 -44 -430 -152 -578 -203 -41 -14 -81 -30 -88 -36 -11 -9 -13
-72 -10 -326 l3 -316 -150 -62 c-82 -34 -157 -62 -165 -62 -13 -1 -204 177
-262 245 -16 19 -16 31 17 239 19 121 39 244 45 274 16 83 15 84 -57 126 -202
116 -665 382 -708 406 -27 16 -54 29 -60 29 -5 0 -120 -64 -255 -141z m573
-246 c170 -97 311 -182 314 -189 2 -7 -11 -111 -31 -231 -19 -120 -38 -240
-41 -268 l-6 -50 208 -207 208 -207 277 110 278 111 2 321 3 320 280 99 c237
84 283 98 299 87 11 -6 140 -115 288 -241 l267 -229 -21 -52 c-208 -520 -371
-1068 -429 -1452 -11 -71 -22 -204 -26 -295 -10 -277 19 -472 128 -875 149
-552 195 -975 170 -1560 -17 -384 -51 -620 -133 -935 -154 -594 -162 -644
-162 -950 0 -308 36 -537 150 -945 71 -255 227 -709 308 -897 l16 -37 -281
-242 c-222 -191 -285 -240 -302 -236 -20 5 -333 114 -487 170 l-65 24 -3 320
-2 319 -278 112 -277 111 -209 -209 -210 -209 38 -238 c21 -131 40 -256 43
-278 l5 -40 -144 -85 c-426 -252 -491 -290 -494 -290 -2 0 -36 20 -76 44 -40
24 -181 108 -313 186 -132 78 -242 144 -244 146 -2 2 16 128 40 279 l43 276
-210 209 -209 209 -85 -35 c-47 -19 -123 -50 -170 -68 -47 -19 -134 -53 -193
-77 l-108 -43 1 -314 c1 -173 -2 -318 -7 -323 -16 -15 -555 -201 -569 -195 -7
3 -137 111 -288 241 l-275 236 20 47 c24 55 174 458 181 487 3 11 29 92 57
180 101 314 185 683 212 935 7 62 9 183 6 295 -6 216 -25 341 -89 584 -98 374
-120 463 -143 586 -47 247 -57 377 -62 785 -8 621 25 889 178 1453 97 360 125
558 116 846 -5 193 -27 349 -81 591 -71 312 -216 764 -369 1147 l-25 62 266
228 c146 125 275 234 286 241 19 12 52 3 296 -83 151 -54 279 -101 283 -105 5
-4 8 -149 7 -322 l-1 -315 278 -111 278 -112 209 210 210 209 -43 273 -43 273
22 15 c50 33 606 350 615 350 6 0 149 -79 318 -177z"/>
<path d="M4370 25228 c-135 -77 -247 -142 -249 -144 -2 -2 15 -122 38 -266
l41 -263 -262 -262 -263 -262 -355 143 -355 143 1 316 1 316 -41 15 c-347 128
-378 136 -401 118 -64 -48 -415 -356 -415 -363 0 -5 27 -79 59 -166 196 -524
325 -999 370 -1358 18 -147 23 -357 12 -495 -15 -184 -34 -291 -93 -520 -27
-107 -64 -253 -83 -325 -86 -339 -118 -635 -119 -1105 -1 -496 28 -750 129
-1137 160 -612 168 -662 169 -978 0 -158 -5 -252 -17 -335 -61 -407 -180 -834
-381 -1368 -25 -68 -46 -127 -46 -132 0 -6 285 -254 421 -367 13 -11 41 -4
175 43 87 31 182 64 209 73 l50 18 0 318 0 317 345 139 c190 76 352 139 360
139 8 0 131 -116 273 -258 l257 -257 -40 -254 c-22 -139 -40 -260 -40 -267 0
-18 487 -307 506 -300 39 15 477 282 481 293 3 8 -13 129 -35 271 l-41 257
257 258 c141 141 264 257 272 257 8 0 170 -63 360 -139 l345 -138 0 -318 0
-318 210 -73 c190 -66 211 -72 230 -59 56 40 420 363 418 371 -1 5 -27 74 -58
153 -97 256 -201 578 -269 841 -152 587 -161 1033 -31 1514 60 218 135 528
149 611 78 464 88 1040 26 1508 -24 177 -47 297 -95 477 -153 583 -168 667
-169 965 -1 212 12 339 60 585 60 306 200 767 342 1133 l50 128 -206 177
c-114 97 -214 183 -224 190 -13 11 -33 6 -119 -26 -57 -22 -147 -54 -199 -71
-52 -17 -100 -35 -107 -39 -8 -5 -11 -91 -10 -321 l2 -315 -355 -142 -355
-143 -262 262 -262 262 39 249 c22 136 40 256 40 265 0 11 -24 31 -62 52 -35
20 -137 78 -228 131 -91 52 -175 100 -186 106 -17 9 -56 -10 -264 -130z m184
-1155 c3 -10 8 -39 11 -65 6 -42 5 -47 -15 -53 -25 -8 -40 7 -40 39 0 17 -5
18 -52 12 -29 -4 -55 -9 -57 -12 -2 -2 8 -79 24 -171 49 -303 44 -283 70 -283
17 0 24 -7 28 -27 3 -16 1 -31 -5 -34 -15 -9 -169 -29 -179 -23 -15 9 -10 54
5 54 8 0 18 5 21 10 4 6 -10 112 -31 235 l-38 225 -35 -6 c-65 -11 -70 -14
-73 -47 -2 -24 -8 -32 -23 -32 -16 0 -22 11 -32 60 -6 33 -10 61 -8 63 3 3
382 68 412 71 6 1 14 -7 17 -16z m324 -10 c69 -15 73 -18 70 -42 -2 -20 -9
-27 -29 -29 -24 -3 -28 -10 -45 -85 -10 -45 -19 -86 -19 -91 0 -10 124 -45
157 -46 12 0 20 18 33 73 9 39 18 80 21 89 3 10 -2 19 -16 23 -21 7 -26 30
-11 54 7 12 20 11 82 -4 98 -24 107 -29 102 -59 -4 -18 -13 -26 -31 -28 -24
-3 -27 -11 -78 -218 -29 -118 -51 -221 -49 -227 2 -7 11 -13 20 -13 8 0 15 -7
15 -16 0 -14 3 -14 15 -4 11 9 18 10 29 1 17 -14 8 -26 156 198 107 162 120
186 106 196 -21 16 -20 28 2 48 17 15 26 11 147 -70 72 -47 134 -89 139 -93 7
-7 -48 -100 -60 -100 -3 0 -14 5 -25 10 -18 10 -18 12 -3 36 9 13 15 26 13 28
-28 22 -100 66 -108 66 -9 0 -57 -68 -104 -147 -4 -7 7 -20 27 -33 29 -17 38
-19 55 -9 15 10 23 10 35 0 14 -11 11 -20 -25 -73 -35 -52 -43 -58 -57 -46 -9
7 -19 14 -21 15 -2 1 1 9 8 16 9 12 4 20 -25 42 -19 15 -39 23 -43 19 -37 -42
-113 -167 -104 -172 5 -4 34 -22 63 -41 l53 -35 17 22 c21 26 33 27 50 7 10
-12 6 -24 -20 -65 -20 -31 -38 -49 -46 -46 -7 3 -74 46 -148 96 -75 49 -143
90 -153 90 -19 0 -162 36 -168 42 -2 2 -1 16 2 31 5 24 9 28 29 23 19 -5 25
-2 29 16 33 136 43 184 37 189 -8 7 -134 39 -155 39 -8 0 -21 -32 -35 -89 -27
-108 -27 -117 -3 -124 16 -4 18 -10 12 -33 -9 -32 -8 -32 -114 -8 -74 18 -82
24 -73 60 5 19 11 23 29 19 22 -6 25 1 75 212 29 120 52 223 52 230 0 6 -9 14
-19 18 -12 3 -18 12 -15 21 2 7 6 21 9 30 3 10 11 14 22 9 10 -3 51 -13 91
-22z m-1145 -271 c29 -40 30 -44 14 -59 -15 -16 -18 -15 -41 6 l-25 24 -43
-34 c-24 -18 -47 -36 -52 -40 -7 -6 68 -123 105 -163 5 -5 23 3 44 19 26 20
34 30 26 38 -16 16 -14 25 8 36 16 9 25 2 61 -46 41 -53 42 -57 25 -70 -13 -9
-22 -10 -29 -3 -15 15 -28 12 -60 -14 l-30 -23 54 -74 c29 -41 54 -76 56 -78
2 -2 15 1 28 7 20 9 27 7 40 -7 9 -10 16 -22 16 -27 -1 -10 -143 -114 -157
-114 -4 0 -14 9 -21 21 -11 18 -11 24 2 38 14 16 5 32 -115 196 -72 99 -135
184 -139 189 -6 5 -16 4 -26 -4 -14 -12 -18 -11 -34 10 -10 14 -16 27 -14 30
26 27 252 188 263 187 7 -1 27 -21 44 -45z m-345 -370 c99 -38 213 -136 252
-218 49 -100 33 -191 -45 -263 -102 -94 -244 -73 -389 60 -99 91 -144 199
-117 282 43 129 170 188 299 139z m1457 -107 c122 -35 272 -109 375 -185 125
-93 272 -247 370 -388 79 -114 190 -304 190 -327 0 -12 -145 -56 -272 -84
-115 -25 -178 -63 -196 -118 -12 -39 -18 -43 -91 -72 -43 -17 -81 -31 -85 -31
-4 0 -6 10 -4 22 2 17 14 26 48 35 25 7 58 23 74 36 l29 23 -58 35 c-32 19
-58 39 -58 44 0 6 17 13 37 16 63 10 66 25 16 68 -25 22 -43 41 -40 43 3 2 17
12 33 21 33 21 34 34 5 47 -13 5 -34 19 -48 31 l-25 21 30 26 c28 24 29 26 11
36 -29 17 -86 67 -86 76 0 4 18 15 41 25 l41 19 -36 30 c-41 35 -62 81 -72
154 -7 53 -24 72 -24 28 0 -37 -18 -78 -48 -108 -26 -28 -26 -28 -3 -28 l22 0
-20 -29 c-22 -31 -27 -46 -12 -36 25 15 20 -22 -8 -61 l-31 -44 30 0 c17 0 30
-3 30 -6 0 -13 -25 -52 -62 -96 l-40 -48 46 0 c25 0 46 -4 46 -9 0 -11 -49
-73 -68 -84 -20 -13 -3 -27 34 -27 20 0 34 -5 34 -12 0 -7 -25 -35 -55 -64
-60 -55 -59 -64 11 -64 26 0 34 -4 34 -18 0 -11 -9 -27 -20 -37 -29 -26 -25
-32 23 -38 61 -7 97 -24 97 -44 0 -38 -82 -104 -203 -164 -65 -32 -125 -63
-133 -70 -7 -6 -21 -9 -29 -5 -23 8 -18 42 7 53 l22 10 -27 18 c-35 22 -35 45
-1 45 27 0 26 0 -14 44 -22 24 -43 58 -47 77 -12 55 -17 55 -31 0 -8 -28 -25
-68 -39 -89 -31 -46 -31 -52 0 -52 31 0 31 -8 -1 -51 -24 -33 -24 -34 -5 -37
27 -4 26 -14 -4 -50 -26 -31 -24 -42 7 -42 22 0 24 -18 3 -26 -24 -9 -18 -20
17 -30 17 -5 33 -14 35 -19 2 -6 -27 -30 -64 -55 -62 -42 -68 -49 -71 -83 -3
-32 -10 -43 -43 -65 -22 -15 -61 -42 -86 -60 -54 -40 -79 -31 -39 13 14 15 26
32 26 37 0 21 -30 65 -59 86 -40 29 -40 64 -1 109 17 18 30 44 30 56 0 34 -57
81 -122 102 -32 11 -58 23 -58 28 0 5 9 22 21 38 79 111 150 388 104 405 -26
10 -42 -14 -60 -89 -10 -40 -22 -78 -28 -85 -6 -7 -21 -36 -34 -64 -15 -33
-53 -80 -103 -130 -44 -43 -80 -83 -80 -87 0 -14 23 -19 45 -10 31 12 65 10
65 -3 0 -6 -10 -22 -22 -35 -12 -13 -20 -24 -17 -26 4 -4 117 7 134 13 21 7
105 -13 105 -25 0 -18 -46 -35 -77 -29 -28 6 -149 -23 -200 -48 -37 -18 -36
-42 2 -46 17 -1 40 -8 52 -14 19 -9 27 -8 43 7 20 18 20 18 20 -17 0 -42 23
-67 48 -51 10 5 18 20 20 32 4 28 24 27 22 -1 -4 -41 0 -46 36 -58 28 -9 34
-17 32 -33 -3 -20 -11 -23 -73 -28 -121 -9 -167 -47 -85 -69 51 -14 52 -30 1
-30 -49 0 -60 -14 -66 -81 -3 -35 -10 -58 -21 -66 -23 -17 -37 -6 -29 24 11
44 -2 63 -43 63 -25 0 -33 3 -25 11 6 6 19 12 29 13 11 2 19 9 19 17 0 36
-120 0 -189 -58 -38 -32 -56 -35 -56 -9 0 14 111 106 168 138 20 12 38 23 40
24 9 6 -30 63 -52 78 -34 22 -53 20 -80 -7 -26 -26 -26 -67 0 -88 26 -21 14
-30 -33 -27 -43 3 -48 1 -51 -19 -4 -29 -18 -29 -32 -2 -16 29 -5 49 27 49 39
0 56 14 49 38 -12 36 4 66 44 90 21 12 55 22 74 22 35 0 55 13 36 25 -5 3 -10
15 -10 26 0 10 -2 19 -4 19 -2 0 -32 -13 -67 -29 -86 -38 -129 -48 -129 -27 0
8 16 28 36 43 83 65 83 64 6 38 -73 -25 -112 -31 -112 -19 0 15 77 78 114 94
23 10 50 25 61 34 15 13 9 12 -21 -3 -65 -32 -131 -45 -158 -33 -14 6 -38 7
-58 3 -43 -10 -93 9 -103 37 -3 13 -16 22 -32 24 -33 4 -43 34 -40 132 2 62 8
83 49 168 28 56 71 125 105 165 32 37 79 100 104 138 25 39 59 90 75 114 58
86 74 117 91 169 16 51 19 53 45 48 19 -4 28 -1 28 8 0 19 -41 77 -67 94 -23
14 -23 14 -23 -25 0 -58 -32 -140 -91 -238 -60 -98 -102 -148 -240 -285 -73
-73 -106 -114 -133 -168 -107 -213 -80 -403 74 -512 61 -44 69 -70 41 -145
-41 -109 -22 -143 82 -150 38 -2 75 -9 83 -16 9 -7 14 -31 14 -69 0 -66 10
-75 99 -84 61 -6 79 -19 112 -82 13 -24 29 -44 36 -44 7 0 34 22 60 48 92 94
155 117 290 109 50 -3 94 -3 97 0 2 3 0 13 -7 24 -14 23 -8 30 22 22 15 -4 20
-10 16 -22 -4 -9 -9 -34 -12 -56 -9 -64 -25 -75 -112 -75 -68 0 -78 -3 -103
-27 -29 -28 -37 -53 -16 -53 6 0 35 12 65 26 76 38 186 52 246 32 26 -8 47
-11 47 -7 0 16 43 9 150 -22 58 -16 124 -33 148 -36 99 -14 22 -33 -135 -33
-98 0 -102 1 -121 27 -11 15 -24 23 -31 19 -6 -4 -9 -12 -5 -17 11 -18 -17
-69 -38 -69 -10 0 -16 -4 -13 -10 3 -5 17 -10 30 -10 13 0 36 -11 52 -24 26
-22 33 -23 103 -15 124 14 349 15 425 1 84 -15 461 -89 525 -103 25 -5 153
-11 285 -12 l240 -2 3 -30 3 -30 -243 -2 c-171 -1 -262 -5 -308 -16 -92 -20
-229 -15 -420 16 -91 15 -205 33 -255 41 -49 8 -101 19 -115 25 -14 6 -65 17
-114 26 -87 14 -90 14 -103 -5 -8 -11 -21 -20 -29 -20 -8 0 -14 -4 -14 -10 0
-5 5 -10 10 -10 6 0 22 -11 35 -25 28 -27 33 -71 11 -100 -12 -16 -17 -17 -57
-5 -64 19 -102 15 -149 -15 -36 -22 -47 -25 -66 -16 -73 33 38 170 138 171 42
0 42 17 0 24 -20 4 -44 9 -52 12 -10 2 -29 -14 -53 -46 -32 -43 -42 -50 -72
-50 -46 0 -62 30 -49 92 8 35 18 48 64 81 30 21 66 43 80 49 23 11 22 12 -25
18 -64 9 -78 1 -99 -55 -19 -50 -39 -65 -84 -65 -56 0 -61 26 -26 138 6 21 4
23 -17 20 -18 -2 -32 -18 -52 -58 -35 -69 -33 -110 13 -235 l33 -89 -16 -62
c-10 -34 -17 -64 -17 -67 0 -3 28 -7 61 -9 56 -4 65 -8 97 -42 24 -27 37 -35
42 -26 13 22 57 2 81 -37 38 -60 55 -94 84 -171 25 -67 26 -75 12 -90 -24 -24
-61 -2 -83 49 -31 71 -61 123 -73 127 -6 2 -15 -8 -21 -22 -11 -29 -79 -76
-112 -76 -54 -2 -158 -46 -205 -89 l-48 -43 29 -15 c58 -30 214 -84 316 -109
82 -20 126 -25 200 -23 52 1 131 3 175 4 44 0 128 7 187 14 97 11 117 10 220
-8 206 -36 247 -32 498 50 30 10 102 30 159 44 57 14 122 35 144 46 35 18 51
20 128 14 49 -4 89 -11 89 -15 0 -20 -63 -256 -70 -264 -5 -5 -52 -2 -112 7
-276 42 -298 43 -410 14 -257 -64 -303 -71 -478 -68 -91 1 -181 6 -200 10 -53
13 -138 37 -210 60 -36 11 -96 24 -135 30 -38 6 -99 17 -135 25 -44 10 -122
15 -242 16 l-178 0 0 28 c0 15 -9 41 -20 57 -11 17 -20 40 -20 51 0 12 -7 27
-15 34 -8 7 -15 21 -15 31 0 21 -44 54 -59 45 -6 -4 -13 -23 -16 -44 -13 -79
-27 -132 -35 -127 -4 3 -4 22 0 42 11 52 20 131 14 116 -12 -27 -24 -11 -24
30 0 72 -16 75 -29 5 -18 -91 -60 -147 -61 -80 -1 26 -1 26 -21 -10 -19 -37
-37 -53 -25 -23 9 25 -10 17 -22 -10 -15 -33 -32 -32 -32 2 0 38 30 197 40
206 4 5 11 -8 14 -28 l7 -37 23 21 c31 30 38 26 31 -16 -3 -21 5 -2 18 41 13
44 28 81 34 83 18 6 55 -76 55 -118 -1 -29 3 -37 14 -32 43 16 21 122 -40 191
-72 81 -85 110 -74 173 12 71 1 182 -26 277 -22 79 -50 113 -39 48 3 -22 -3
-61 -16 -105 -23 -76 -46 -97 -38 -33 24 180 28 233 23 273 -7 52 -49 162 -63
166 -6 2 -16 -24 -23 -57 -8 -38 -24 -75 -42 -98 -17 -20 -34 -44 -38 -52 -17
-30 -21 -1 -5 36 33 77 75 220 75 257 0 54 -24 103 -78 161 -33 35 -52 67 -62
99 l-13 49 -43 -89 c-73 -148 -86 -189 -95 -313 -14 -179 -11 -421 6 -488 25
-95 65 -462 65 -599 0 -62 6 -98 25 -151 14 -38 25 -78 25 -89 0 -12 7 -26 15
-33 8 -7 15 -24 15 -39 0 -14 23 -82 50 -150 28 -68 50 -130 50 -138 0 -30 74
-155 126 -214 30 -33 54 -65 54 -70 0 -6 14 -31 30 -56 20 -30 30 -56 30 -82
0 -64 78 -148 260 -283 91 -67 99 -76 140 -156 18 -34 36 -65 41 -68 5 -3 9
-12 9 -20 0 -42 -258 184 -372 324 -220 274 -391 640 -507 1092 -36 142 -65
308 -87 505 -23 207 -23 646 0 845 51 430 144 783 292 1105 264 572 655 923
1099 989 76 11 252 -4 340 -29z m1241 -11 c18 -9 49 -33 68 -55 36 -39 86
-128 86 -152 0 -7 -20 -28 -45 -46 -37 -27 -49 -31 -60 -21 -20 17 -19 33 4
54 16 15 17 23 9 57 -34 131 -205 114 -352 -34 -71 -71 -93 -126 -75 -189 10
-38 71 -101 108 -113 27 -8 26 -16 -5 -38 -24 -18 -26 -18 -69 7 -113 67 -161
209 -106 314 45 87 154 182 249 217 52 19 147 18 188 -1z m239 -435 c51 -14
116 -81 133 -136 29 -96 5 -171 -78 -246 -101 -91 -251 -141 -351 -117 -92 22
-169 118 -169 208 0 94 80 192 204 252 44 21 92 41 106 43 49 8 116 7 155 -4z
m-3484 -39 c10 -6 19 -18 19 -28 0 -9 44 -68 98 -131 93 -110 100 -115 182
-152 81 -35 86 -36 100 -19 11 14 21 16 38 9 12 -4 22 -15 22 -22 0 -20 -69
-167 -78 -167 -4 0 -18 7 -30 16 -18 13 -21 19 -11 30 6 8 10 16 8 18 -2 2
-44 23 -94 46 l-90 42 -150 -6 c-89 -3 -151 -10 -153 -16 -5 -14 -25 -13 -46
3 -17 13 -16 17 17 90 20 42 39 77 42 77 19 0 46 -23 41 -36 -4 -12 14 -14
105 -14 l110 0 -62 75 c-69 84 -81 94 -87 77 -5 -16 -24 -15 -46 1 -17 13 -17
16 8 65 29 57 29 57 57 42z m3773 -513 c20 -62 36 -128 36 -146 0 -51 -33 -95
-89 -120 -62 -26 -113 -27 -167 -1 l-41 21 -74 -76 c-41 -42 -78 -88 -84 -103
-23 -63 -56 -57 -79 15 l-17 58 102 96 c73 68 101 100 96 111 -5 15 -12 15
-69 -4 -35 -11 -73 -22 -85 -25 -16 -4 -23 -13 -23 -29 0 -13 -3 -24 -7 -24
-5 0 -18 -3 -30 -6 -20 -5 -24 1 -47 77 -20 64 -23 85 -13 91 20 13 45 9 56
-9 8 -16 17 -15 113 16 56 18 148 46 203 63 127 38 138 44 130 69 -5 14 0 22
17 28 13 6 26 10 30 10 4 1 23 -50 42 -112z m-3916 36 c28 -7 35 -18 27 -42
-5 -16 -12 -19 -39 -14 -32 5 -33 4 -46 -41 -8 -28 -9 -51 -4 -56 5 -4 103
-36 218 -71 192 -58 209 -62 221 -46 13 18 50 23 60 7 6 -10 -33 -159 -46
-174 -4 -5 -20 -6 -34 -2 -22 6 -26 11 -21 30 5 22 -3 25 -216 90 -121 37
-222 65 -223 64 -1 -2 -9 -25 -18 -51 l-16 -49 29 -11 c32 -12 41 -43 16 -53
-8 -3 -40 2 -71 11 -41 12 -55 20 -51 30 3 8 30 98 61 201 30 102 57 189 60
194 3 5 20 4 38 -2 17 -5 42 -12 55 -15z m3166 -119 c47 -112 47 -119 -3 -93
-22 11 -75 27 -118 34 -189 34 -228 81 -96 118 63 17 164 35 174 30 4 -2 23
-42 43 -89z m-229 -124 c47 -11 101 -26 119 -34 19 -8 68 -20 110 -27 132 -21
94 -34 -96 -34 -95 0 -256 -4 -358 -9 -165 -8 -189 -7 -218 8 -17 9 -32 18
-32 21 0 15 76 52 144 71 106 28 220 30 331 4z m1121 -300 c13 -63 23 -133 23
-155 1 -95 -75 -181 -193 -217 -142 -43 -283 -22 -349 51 -41 45 -40 43 -67
184 -28 148 -27 157 9 157 20 0 30 -6 34 -19 4 -18 12 -17 183 15 264 50 285
55 278 65 -12 20 6 40 33 37 25 -3 27 -7 49 -118z m-1551 81 c3 -5 1 -12 -5
-16 -5 -3 -10 1 -10 9 0 18 6 21 15 7z m72 -28 c-3 -10 -5 -4 -5 12 0 17 2 24
5 18 2 -7 2 -21 0 -30z m173 -3 c0 -40 -15 -54 -26 -25 -8 20 4 65 16 65 6 0
10 -18 10 -40z m549 -30 c7 -25 15 -53 17 -62 5 -15 -2 -18 -43 -18 -120 1
-199 24 -190 55 4 13 190 84 198 76 3 -3 11 -26 18 -51z m-3495 41 c18 -8 23
-15 19 -30 -3 -12 -3 -21 0 -21 3 0 105 -20 227 -45 121 -25 225 -43 230 -40
6 3 10 13 10 21 0 15 27 19 48 5 12 -7 11 -23 -3 -92 -9 -46 -20 -88 -24 -92
-4 -4 -19 -3 -34 2 -19 7 -24 15 -20 30 3 12 3 21 0 21 -4 0 -104 20 -223 45
-119 25 -220 45 -224 45 -5 0 -12 -9 -15 -21 -6 -17 -12 -19 -33 -14 -15 4
-28 8 -30 9 -3 4 28 168 34 178 6 10 8 10 38 -1z m2602 -39 c-12 -11 -18 7
-10 30 l8 23 4 -23 c2 -13 1 -26 -2 -30z m461 -4 c-3 -7 -5 -2 -5 12 0 14 2
19 5 13 2 -7 2 -19 0 -25z m-237 -18 c0 -23 -4 -30 -20 -30 -23 0 -27 29 -8
48 19 19 28 14 28 -18z m-630 -90 c0 -5 -2 -10 -4 -10 -3 0 -8 5 -11 10 -3 6
-1 10 4 10 6 0 11 -4 11 -10z m1124 -2 c78 -22 63 -29 -51 -26 -112 3 -134 10
-90 28 31 13 93 12 141 -2z m-734 -39 c28 -6 59 -7 68 -3 9 4 20 7 23 6 3 -1
77 -4 164 -7 87 -3 162 -8 166 -11 45 -27 -90 -121 -205 -143 -70 -13 -224 -6
-351 14 -49 8 -138 19 -198 24 -101 7 -139 18 -109 28 7 3 21 13 30 23 23 24
99 62 142 71 56 11 214 10 270 -2z m954 -45 c3 -9 6 -26 6 -39 0 -23 -1 -23
-82 -18 -84 6 -148 24 -148 42 0 14 56 24 100 16 22 -4 47 -2 57 4 27 15 60
13 67 -5z m-3526 -60 c16 -3 22 -11 22 -29 0 -22 -4 -25 -34 -25 -40 0 -66
-28 -66 -72 0 -21 8 -33 33 -48 53 -33 71 -26 156 54 49 45 97 81 125 91 82
31 172 1 224 -75 21 -30 23 -44 19 -95 -3 -33 -13 -79 -22 -103 l-17 -43 -62
7 c-71 7 -77 11 -70 42 5 17 14 22 40 22 28 0 38 6 54 33 25 41 25 68 0 95
-49 52 -132 35 -191 -39 -16 -21 -50 -51 -76 -68 -39 -26 -56 -31 -105 -31
-68 0 -104 16 -143 62 -25 29 -27 38 -23 97 3 37 12 83 21 104 18 41 19 41
115 21z m3396 -40 c72 -8 137 -16 144 -19 6 -2 12 -16 12 -30 0 -24 -3 -26
-27 -21 -87 18 -169 26 -259 26 -114 0 -194 9 -194 21 0 14 153 50 179 43 8
-3 73 -11 145 -20z m-934 -84 c191 -12 210 -15 210 -36 0 -35 -54 -71 -135
-90 -115 -26 -355 -25 -483 3 -52 12 -99 26 -105 32 -16 16 20 61 74 89 49 26
35 26 439 2z m830 -25 c47 -7 123 -19 170 -26 47 -7 90 -16 97 -21 11 -9 29
-86 21 -93 -2 -2 -31 2 -63 9 -97 22 -317 38 -523 36 -179 0 -193 1 -190 17 4
22 60 60 109 73 110 30 214 31 379 5z m-2460 -105 c0 -29 -19 -34 -39 -9 l-18
23 -14 -37 c-25 -69 -42 -27 -18 44 21 61 30 65 61 30 15 -17 28 -40 28 -51z
m915 43 c25 -29 32 -53 15 -53 -6 0 -19 6 -31 13 -17 10 -22 9 -33 -5 -7 -10
-16 -18 -19 -18 -14 0 -37 34 -37 56 0 21 4 23 24 18 13 -3 27 -1 30 5 11 18
25 13 51 -16z m2565 -10 c0 -16 3 -58 7 -95 l6 -68 -32 0 c-24 0 -31 4 -31 20
0 25 20 25 -247 -2 -220 -21 -223 -22 -223 -45 0 -19 -5 -23 -30 -23 -36 0
-37 1 -45 108 l-6 82 29 0 c22 0 31 -6 35 -21 5 -20 10 -21 92 -14 246 21 380
40 381 55 2 28 4 30 34 30 26 0 30 -4 30 -27z m-3476 -191 c-23 -36 -29 -15
-14 51 18 73 25 79 28 24 2 -34 -2 -57 -14 -75z m577 76 c33 -40 19 -52 -21
-20 -13 11 -20 24 -16 30 10 17 15 15 37 -10z m-653 -215 c4 -156 8 -190 21
-200 13 -9 14 -17 4 -45 -6 -18 -10 -62 -8 -98 3 -36 5 -77 5 -92 0 -16 4 -28
9 -28 4 0 11 -42 15 -92 10 -129 44 -248 71 -248 19 0 30 24 54 125 23 95 54
199 72 240 l12 30 7 -45 c7 -44 0 -119 -18 -190 -5 -19 -33 -79 -62 -133 l-53
-99 6 -76 c5 -66 9 -80 31 -98 19 -17 26 -35 32 -83 4 -34 11 -64 15 -67 5 -3
9 -11 9 -19 0 -7 10 -35 22 -62 12 -26 33 -77 47 -112 14 -35 32 -66 39 -69 7
-2 19 12 27 35 9 21 20 45 24 54 5 9 17 47 26 85 24 101 24 100 46 129 16 19
24 23 34 15 10 -9 15 -2 20 30 4 26 12 40 22 40 12 0 14 -9 8 -52 -12 -85 -34
-161 -55 -188 -39 -51 -110 -191 -110 -218 0 -15 6 -36 13 -47 7 -11 19 -39
26 -63 6 -23 27 -72 46 -109 19 -36 35 -73 35 -82 0 -10 5 -22 10 -27 6 -6 20
-29 33 -51 53 -98 83 -143 98 -148 21 -7 39 -48 39 -90 0 -32 21 -65 41 -65 5
0 9 -8 9 -17 0 -10 9 -42 20 -70 11 -30 15 -53 10 -53 -6 0 -15 12 -21 26 -5
15 -21 40 -34 56 -14 16 -25 38 -25 48 0 10 -4 22 -10 25 -5 3 -10 15 -10 26
0 10 -4 19 -9 19 -12 0 -71 99 -71 120 0 10 -10 31 -23 47 -61 75 -100 141
-132 221 -16 40 -32 75 -37 78 -4 3 -8 12 -8 21 0 9 -12 31 -26 50 -27 35 -64
132 -64 167 0 12 -9 32 -20 46 -11 14 -20 29 -20 34 0 5 -6 17 -14 25 -7 9
-24 45 -36 81 -12 36 -26 70 -30 75 -17 21 -50 121 -50 150 0 17 -4 35 -9 40
-17 19 -61 166 -61 204 0 22 -4 51 -10 65 -5 15 -12 55 -14 90 -3 35 -13 99
-22 142 -10 44 -17 90 -16 104 4 80 0 226 -8 295 -12 96 -12 234 -2 300 1 5 7
4 13 -2 8 -8 14 -80 17 -200z m2300 178 c2 -12 1 -34 -2 -47 -6 -22 -9 -23
-29 -12 -12 7 -29 13 -37 13 -10 0 -15 10 -15 30 0 22 4 29 17 27 9 -1 20 2
23 8 11 19 40 6 43 -19z m-158 -9 c0 -9 -5 -24 -10 -32 -7 -11 -10 -5 -10 23
0 23 4 36 10 32 6 -3 10 -14 10 -23z m205 5 c0 -26 -20 -25 -23 2 -3 16 1 22
10 19 7 -3 13 -12 13 -21z m75 0 c0 -13 -7 -32 -15 -43 -13 -18 -14 -17 -15
17 0 20 3 39 7 42 13 14 23 7 23 -16z m94 1 c12 -47 8 -58 -24 -58 -28 0 -30
2 -30 40 0 35 3 40 24 40 16 0 26 -7 30 -22z m46 8 c0 -8 -4 -18 -10 -21 -5
-3 -10 3 -10 14 0 12 5 21 10 21 6 0 10 -6 10 -14z m66 0 c7 -18 -14 -58 -27
-51 -10 7 -12 48 -2 58 11 11 23 8 29 -7z m-443 -22 c-4 -10 -9 -12 -15 -6
-12 12 -1 35 12 27 5 -3 6 -13 3 -21z m-2503 -48 c0 -31 -5 -58 -13 -64 -7 -6
-64 -33 -127 -61 -88 -38 -116 -55 -118 -70 -3 -20 1 -21 92 -21 77 0 96 3 96
14 0 20 12 26 39 19 21 -5 22 -10 19 -92 l-3 -86 -30 0 c-23 0 -31 5 -33 22
-3 24 -21 26 -329 38 l-143 6 0 -26 c0 -21 -5 -25 -30 -25 l-30 0 0 118 c0 94
4 125 20 160 45 99 201 106 287 14 l24 -26 105 52 c58 29 107 59 110 67 4 9
19 15 35 15 28 0 29 -1 29 -54z m1890 45 c0 -28 -24 -71 -40 -71 -22 0 -35 16
-20 25 6 4 8 11 4 16 -11 18 5 39 31 39 14 0 25 -4 25 -9z m130 -36 c0 -25 -4
-45 -10 -45 -5 0 -10 20 -10 45 0 25 5 45 10 45 6 0 10 -20 10 -45z m77 -2
c-3 -10 -5 -4 -5 12 0 17 2 24 5 18 2 -7 2 -21 0 -30z m285 -10 c-10 -28 -10
-28 -11 12 -1 28 2 36 10 28 8 -8 8 -19 1 -40z m-459 22 c-3 -9 -8 -14 -10
-11 -3 3 -2 9 2 15 9 16 15 13 8 -4z m20 -52 c-3 -7 -10 -13 -15 -13 -6 0 -7
7 -4 16 3 9 6 21 6 27 0 7 4 7 9 -2 5 -8 7 -20 4 -28z m384 -15 c-3 -8 -6 -5
-6 6 -1 11 2 17 5 13 3 -3 4 -12 1 -19z m1563 -73 l0 -95 -30 0 c-23 0 -30 4
-30 20 0 20 -5 20 -232 18 l-233 -3 -3 -45 c-2 -24 -1 -59 3 -77 5 -28 10 -33
35 -33 25 0 30 -4 30 -24 0 -23 -4 -24 -61 -28 -34 -1 -63 0 -65 3 -2 4 -7 84
-10 178 l-7 171 30 0 c22 0 32 -6 36 -20 5 -20 12 -20 239 -18 l233 3 3 23 c3
17 10 22 33 22 l29 0 0 -95z m-762 3 c32 -9 32 -10 32 -74 0 -35 0 -67 0 -71
0 -22 -347 -21 -495 1 -126 19 -294 52 -301 59 -3 2 19 7 48 11 29 4 87 16
128 26 41 10 111 24 155 31 44 6 112 17 150 25 75 14 226 10 283 -8z m-2630
-60 c-4 -53 -14 -92 -37 -141 -34 -74 -39 -91 -16 -61 20 26 17 7 -5 -41 -16
-32 -18 -35 -13 -11 4 19 2 27 -5 22 -22 -13 -21 14 4 95 14 46 27 95 28 109
3 29 33 100 42 100 4 0 4 -33 2 -72z m-504 -345 c4 -71 9 -149 12 -175 l6 -48
-36 0 c-30 0 -36 4 -36 20 0 20 -3 21 -127 14 -351 -18 -338 -17 -341 -41 -3
-18 -10 -23 -32 -23 -31 0 -29 -10 -46 236 -6 90 -6 91 17 97 13 4 41 7 61 7
29 0 38 -5 43 -21 8 -23 -7 -39 -37 -39 -15 0 -18 -10 -18 -65 l0 -65 78 0
c105 0 122 6 122 40 0 42 -10 60 -32 60 -14 0 -19 6 -16 23 3 20 8 22 73 22
57 0 70 -3 73 -17 2 -9 -5 -19 -17 -23 -17 -5 -21 -15 -21 -45 0 -21 4 -41 8
-44 4 -2 52 -2 105 1 l97 6 0 32 c0 18 -3 54 -6 80 -7 45 -8 47 -35 41 -27 -5
-29 -3 -29 24 l0 30 64 0 64 0 6 -127z m3364 80 c2 -13 9 -23 15 -23 27 0 336
-20 394 -26 59 -5 62 -4 65 18 2 17 11 24 31 26 l27 3 0 -78 c0 -107 -6 -125
-39 -121 -18 2 -27 10 -29 25 -3 19 -11 22 -65 27 -135 13 -389 26 -398 21 -5
-4 -9 -40 -9 -81 l0 -74 30 0 c25 0 30 -4 30 -25 0 -25 -1 -26 -62 -23 l-63 3
3 155 c3 194 5 202 40 198 19 -2 28 -9 30 -25z m-1501 -34 c-5 -19 -2 -21 24
-15 31 6 32 5 23 -18 -7 -19 -35 -21 -52 -4 -15 15 -16 58 -1 58 7 0 9 -9 6
-21z m153 -54 c0 -19 -4 -37 -10 -40 -6 -4 -10 12 -10 40 0 28 4 44 10 40 6
-3 10 -21 10 -40z m-63 13 c-3 -8 -6 -5 -6 6 -1 11 2 17 5 13 3 -3 4 -12 1
-19z m210 -10 c9 26 83 6 83 -23 0 -8 8 -18 17 -24 14 -7 15 -12 5 -24 -15
-17 -79 -7 -97 15 -5 7 -20 12 -31 10 -17 -2 -22 3 -26 28 -6 39 0 44 25 23
15 -13 21 -15 24 -5z m713 -15 c0 -16 -5 -35 -10 -43 -9 -13 -11 -13 -20 0 -5
8 -10 27 -10 43 0 20 5 27 20 27 15 0 20 -7 20 -27z m68 -11 c3 -27 0 -32 -17
-32 -17 0 -21 6 -21 36 0 28 3 35 18 32 11 -2 18 -14 20 -36z m50 -1 c3 -24 0
-32 -10 -29 -7 3 -14 19 -16 37 -3 24 0 32 10 29 7 -3 14 -19 16 -37z m-951
-3 c-3 -7 -5 -2 -5 12 0 14 2 19 5 13 2 -7 2 -19 0 -25z m-426 -8 c5 -8 13
-27 19 -42 9 -28 10 -28 107 -28 54 0 131 -7 173 -15 201 -39 312 -57 540 -86
146 -20 340 -22 395 -5 92 28 159 38 225 34 65 -4 65 -4 68 -36 3 -30 1 -32
-28 -32 -17 0 -52 -6 -78 -14 -68 -20 -328 -92 -387 -106 -72 -18 -254 1 -338
35 -106 42 -248 85 -337 101 -47 9 -124 25 -172 35 -48 10 -109 19 -137 19
-45 0 -52 -3 -77 -35 -14 -19 -30 -35 -35 -35 -5 0 -17 15 -26 34 -20 42 -52
57 -118 54 -45 -3 -50 -1 -58 23 -15 42 -1 76 41 99 30 16 53 19 126 17 67 -1
91 -6 97 -17z m1099 14 c0 -12 -30 -35 -39 -29 -16 9 -1 35 20 35 10 0 19 -3
19 -6z m322 -9 c0 -5 -5 -11 -11 -13 -6 -2 -11 4 -11 13 0 9 5 15 11 13 6 -2
11 -8 11 -13z m-695 -53 c-9 -2 -26 2 -39 9 -20 11 -21 14 -5 17 9 2 17 9 17
15 1 7 10 1 21 -13 18 -21 19 -25 6 -28z m205 -7 c-7 -16 -17 -23 -24 -19 -6
4 -37 6 -67 5 -66 -2 -97 13 -66 31 11 6 41 13 67 14 39 2 48 -1 48 -14 0 -13
4 -11 16 7 22 31 42 13 26 -24z m66 11 c4 -33 -14 -58 -27 -38 -11 18 -1 74
13 69 6 -2 12 -16 14 -31z m724 -213 c-4 -25 -12 -23 233 -58 99 -15 190 -29
202 -32 18 -4 25 1 32 20 9 22 14 24 38 18 15 -4 27 -14 26 -22 -13 -97 -46
-305 -49 -311 -4 -7 -30 -4 -91 8 -16 3 -23 11 -23 29 0 20 6 24 32 27 32 3
33 5 41 62 5 32 6 60 4 62 -6 6 -180 34 -185 30 -1 -2 -6 -20 -9 -40 -4 -28
-2 -40 12 -50 18 -13 18 -52 0 -50 -6 1 -36 5 -67 8 -53 6 -58 9 -58 31 0 17
6 25 22 27 18 2 24 12 29 41 3 21 3 40 -1 42 -9 6 -194 35 -197 31 -8 -8 -24
-128 -19 -141 3 -8 17 -15 31 -15 18 0 25 -5 25 -20 0 -28 -22 -34 -83 -24
-43 8 -52 12 -50 29 1 11 12 89 24 173 l23 153 30 -3 c25 -2 30 -7 28 -25z
m-2745 -15 c-3 -8 -6 -5 -6 6 -1 11 2 17 5 13 3 -3 4 -12 1 -19z m-1102 -31
c7 -8 95 -25 206 -41 107 -15 230 -33 274 -39 74 -11 80 -14 83 -37 3 -23 -14
-33 -247 -150 -164 -81 -251 -130 -254 -142 -4 -12 -15 -18 -35 -18 -28 0 -30
2 -36 53 -3 28 -9 69 -12 90 -6 36 -6 37 25 37 21 0 31 -5 31 -15 0 -8 4 -15
10 -15 16 0 325 153 315 157 -10 3 -341 53 -351 53 -3 0 -3 -9 1 -20 5 -15 0
-21 -19 -26 -14 -3 -29 -3 -34 0 -11 7 -25 103 -17 116 9 14 44 12 60 -3z
m2546 -56 c14 -48 7 -71 -22 -71 -19 0 -21 4 -15 38 3 20 6 45 6 55 0 31 19
18 31 -22z m-63 -84 c-2 -24 -7 -40 -13 -37 -5 3 -9 16 -9 30 1 14 3 39 3 55
1 26 3 27 12 12 6 -9 9 -36 7 -60z m155 -5 c-7 -66 -13 -66 -13 2 0 33 4 55 9
51 5 -3 7 -27 4 -53z m187 0 c0 -71 -8 -90 -36 -88 -19 1 -24 6 -24 29 0 15 4
27 10 27 5 0 12 17 16 38 8 45 13 54 25 47 5 -4 9 -27 9 -53z m-576 19 c8 -13
-4 -42 -15 -35 -12 7 -12 44 0 44 6 0 12 -4 15 -9z m356 -5 c0 -3 -4 -8 -10
-11 -5 -3 -10 -1 -10 4 0 6 5 11 10 11 6 0 10 -2 10 -4z m-310 -26 c0 -11 -4
-20 -10 -20 -5 0 -10 9 -10 20 0 11 5 20 10 20 6 0 10 -9 10 -20z m389 -22 c0
-38 -1 -40 -10 -19 -8 22 -4 61 7 61 2 0 4 -19 3 -42z m310 20 c6 -13 13 -36
14 -53 2 -26 -2 -30 -26 -33 -58 -7 -87 35 -63 91 12 25 60 22 75 -5z m-2155
-98 c13 -36 27 -73 31 -84 6 -14 4 -17 -6 -14 -24 8 -67 91 -68 131 -1 56 16
42 43 -33z m1892 54 c-3 -9 -6 -18 -6 -20 0 -3 -4 -3 -10 1 -11 7 -2 35 12 35
6 0 7 -7 4 -16z m1048 -110 c10 -4 14 -14 10 -28 -4 -19 2 -23 68 -40 40 -10
129 -33 198 -51 191 -50 186 -50 193 -24 5 18 10 20 34 14 15 -3 29 -7 30 -9
5 -5 -62 -234 -75 -254 -21 -33 -70 -55 -119 -54 -61 0 -140 46 -164 95 -14
27 -25 37 -37 33 -9 -3 -62 -17 -117 -31 -55 -15 -104 -33 -108 -41 -7 -13
-40 -12 -55 1 -8 7 22 114 32 118 6 2 65 15 131 27 117 23 167 43 134 54 -24
9 -163 46 -171 46 -5 0 -8 -7 -8 -15 0 -17 -45 -21 -55 -5 -6 11 11 107 26
148 9 22 24 27 53 16z m-3154 -140 c12 -47 21 -87 19 -89 -2 -2 -16 -6 -32
-10 -21 -6 -27 -4 -27 8 0 9 -4 18 -9 22 -5 3 -109 -20 -231 -50 -122 -30
-224 -55 -226 -55 -3 0 -2 -11 2 -24 5 -19 1 -25 -21 -30 -15 -4 -29 -5 -31
-3 -6 6 -44 150 -44 170 0 22 48 24 64 2 12 -16 62 -8 324 55 122 30 132 34
132 55 0 23 11 33 41 34 12 1 22 -21 39 -85z m324 -124 c31 -41 56 -78 56 -83
0 -15 -40 14 -57 41 -9 15 -27 40 -40 55 -13 16 -23 38 -23 49 0 12 2 19 4 17
2 -2 29 -38 60 -79z m923 -24 c-11 -27 -36 -18 -52 20 -8 20 -12 41 -9 46 10
16 68 -48 61 -66z m74 29 c-9 -30 -9 -30 -10 10 -1 25 2 36 9 29 6 -6 6 -21 1
-39z m-535 -82 c-6 -98 -5 -106 8 -88 15 20 15 20 16 -1 0 -11 -7 -29 -15 -40
-14 -18 -14 -18 -15 -1 0 32 -23 12 -39 -34 -8 -24 -16 -38 -19 -30 -5 16 11
100 39 192 10 36 19 75 19 87 0 12 3 22 6 22 4 0 4 -48 0 -107z m354 80 c0
-10 -5 -25 -10 -33 -7 -11 -10 -7 -10 18 0 17 5 32 10 32 6 0 10 -8 10 -17z
m228 -16 c2 -10 -3 -17 -12 -17 -10 0 -16 9 -16 21 0 24 23 21 28 -4z m64 -14
c2 -17 13 -33 29 -42 25 -14 28 -13 51 12 31 33 38 34 38 3 0 -31 14 -40 39
-27 14 8 22 6 35 -8 26 -29 20 -51 -13 -51 -17 0 -32 4 -35 9 -4 5 -17 8 -31
6 -14 -1 -53 3 -87 9 l-62 11 -3 40 c-3 49 2 65 21 65 9 0 16 -11 18 -27z
m-1372 -49 c12 -32 25 -15 -157 -216 -79 -87 -143 -160 -143 -162 0 -3 57 16
128 41 70 25 142 50 159 56 26 8 32 14 27 32 -4 16 1 24 20 33 30 13 36 5 66
-84 l18 -55 -26 -10 c-21 -8 -29 -6 -42 10 -15 19 -18 19 -185 -40 -257 -91
-260 -93 -258 -118 2 -15 -5 -24 -23 -31 -14 -6 -27 -10 -29 -10 -2 0 -12 24
-21 54 l-17 55 119 132 c170 189 187 209 172 208 -7 0 -78 -23 -158 -52 -129
-46 -145 -55 -145 -75 0 -22 -19 -42 -42 -42 -14 0 -57 125 -50 144 3 7 15 16
27 19 16 4 24 1 27 -14 3 -10 10 -19 17 -18 6 0 115 38 241 84 127 46 238 84
248 84 10 1 22 -10 27 -25z m1748 -5 c26 -10 30 -45 7 -75 -13 -17 -14 -17
-15 -1 0 19 -15 23 -25 6 -4 -5 -12 -8 -18 -6 -7 2 -19 -1 -27 -8 -18 -15 -60
-3 -60 18 0 30 22 76 38 80 20 4 67 -2 100 -14z m379 -11 c-3 -8 -6 -5 -6 6
-1 11 2 17 5 13 3 -3 4 -12 1 -19z m58 -72 c13 18 14 18 15 1 0 -10 -7 -20
-15 -23 -9 -4 -15 -19 -15 -35 0 -16 -4 -29 -10 -29 -5 0 -10 10 -10 23 0 49
-25 54 -49 10 -18 -35 -27 -28 -23 18 3 26 11 44 23 52 10 7 19 18 19 25 0 7
5 10 10 7 6 -3 16 6 22 22 12 27 13 25 16 -31 3 -53 4 -57 17 -40z m509 85 c3
-5 -1 -28 -8 -52 -8 -24 -17 -57 -21 -72 -3 -16 -11 -27 -18 -24 -8 3 -11 25
-8 73 1 38 5 72 8 77 6 10 41 9 47 -2z m-92 -28 c9 -40 -22 -110 -43 -97 -8 4
-9 94 -2 107 8 14 42 7 45 -10z m-672 -2 c0 -5 20 -12 44 -15 46 -7 56 -19 56
-62 0 -30 -35 -34 -43 -4 -4 15 -14 20 -39 20 -33 0 -35 2 -36 35 -1 19 3 35
8 35 6 0 10 -4 10 -9z m562 -2 c17 -9 17 -11 -2 -49 -16 -31 -25 -38 -44 -36
-34 4 -58 26 -53 48 3 10 1 21 -4 24 -31 18 68 31 103 13z m482 -39 c14 -5 26
-17 26 -26 0 -9 6 -22 14 -28 30 -23 392 -320 403 -330 10 -9 10 -18 1 -44
-12 -30 -16 -32 -58 -31 -25 0 -151 11 -280 23 -129 12 -239 19 -244 14 -13
-10 -37 -10 -54 1 -10 6 -8 22 14 77 36 91 40 96 70 82 20 -9 24 -17 19 -35
-5 -21 -2 -23 35 -25 22 -1 47 -2 56 -2 10 -1 27 26 49 79 l34 80 -42 38 c-41
38 -42 38 -55 19 -12 -18 -17 -19 -38 -10 -27 13 -27 24 1 91 17 42 15 40 49
27z m-2118 -27 c-3 -16 -9 -39 -12 -52 -6 -20 -4 -23 9 -18 24 9 21 -2 -12
-55 -33 -51 -51 -67 -51 -43 0 28 54 195 64 195 4 0 6 -12 2 -27z m202 -23
c53 -13 103 -19 162 -20 161 -5 331 -35 446 -81 41 -16 109 -32 160 -38 145
-17 188 -37 113 -53 -77 -16 -160 -37 -205 -51 -136 -42 -276 -46 -439 -11
-38 8 -109 20 -157 28 -89 13 -121 30 -133 67 -9 27 -24 23 -31 -8 -8 -39 -36
-103 -44 -103 -4 0 4 42 17 93 21 80 22 97 12 130 -18 56 6 68 99 47z m-314
-77 c-12 -26 -18 -33 -21 -21 -5 19 28 89 34 71 2 -6 -4 -28 -13 -50z m-328
-113 c31 -36 26 -38 -20 -8 -31 20 -66 65 -66 83 0 10 56 -39 86 -75z m417 31
c-3 -11 -16 -30 -31 -43 -26 -24 -23 -14 10 35 23 32 28 34 21 8z m77 -219
c-12 -27 -35 -63 -52 -78 -17 -16 -29 -24 -27 -19 11 29 73 152 83 164 21 27
18 -15 -4 -67z m1564 36 c3 -13 6 -36 6 -52 0 -24 2 -27 15 -16 9 7 18 10 21
7 8 -8 -16 -90 -33 -113 -12 -16 -15 -17 -23 -4 -5 8 -10 30 -10 48 0 20 -4
31 -10 27 -5 -3 -10 -24 -10 -46 0 -29 -4 -39 -16 -39 -15 0 -16 9 -10 68 4
37 11 71 17 77 6 5 9 3 9 -8 0 -9 5 -17 11 -17 8 0 10 14 6 39 -3 22 -2 42 1
45 11 11 20 6 26 -16z m121 12 c6 -10 -51 -120 -62 -120 -7 0 7 57 23 96 14
34 28 42 39 24z m-2418 -40 c74 -44 111 -153 78 -224 -26 -54 -76 -92 -249
-185 -141 -76 -155 -86 -150 -107 4 -16 0 -25 -14 -33 -12 -6 -23 -11 -26 -11
-8 0 -86 143 -86 157 0 7 10 18 22 24 17 9 24 9 33 -5 7 -9 15 -16 19 -16 18
0 317 170 349 198 44 40 49 84 16 126 -16 20 -29 26 -59 26 -46 0 -57 -4 -225
-93 -180 -96 -177 -94 -165 -117 8 -15 6 -21 -9 -30 -33 -17 -39 -13 -77 56
-36 64 -36 67 -19 80 25 19 42 18 53 -3 8 -14 26 -7 140 56 72 39 155 82 184
96 67 30 141 32 185 5z m2204 -2 c5 -75 -13 -154 -31 -143 -13 8 -13 121 0
146 14 26 30 24 31 -3z m-146 -8 c0 -8 -6 -14 -14 -12 -9 2 -11 -3 -6 -15 8
-21 8 -21 6 -51 0 -13 -5 -21 -10 -18 -5 4 -7 -3 -4 -14 4 -13 0 -20 -10 -20
-10 0 -17 15 -22 46 -5 37 -3 50 12 67 16 19 16 20 1 8 -15 -11 -18 -11 -18 1
0 21 5 24 37 23 18 0 28 -5 28 -15z m-265 -22 c19 -2 26 -10 28 -30 3 -22 -2
-28 -32 -39 -25 -9 -36 -19 -36 -34 0 -11 -5 -27 -10 -35 -9 -13 -12 -13 -20
2 -6 10 -18 14 -30 11 -17 -4 -20 0 -20 25 0 39 9 62 25 62 7 0 11 9 8 23 -6
29 35 53 52 31 5 -7 21 -14 35 -16z m120 22 c11 -7 12 -10 2 -10 -10 0 -12
-10 -8 -37 9 -54 -6 -127 -26 -131 -20 -4 -28 71 -15 141 10 47 19 55 47 37z
m725 -41 c55 -31 62 -42 46 -68 -7 -11 -15 -11 -44 0 -31 11 -39 10 -62 -5
-57 -37 -55 -104 4 -139 41 -24 79 -21 159 13 114 49 209 37 267 -32 59 -70
51 -149 -25 -230 l-45 -48 -52 31 c-49 28 -51 32 -41 55 13 28 16 29 46 8 20
-14 24 -14 51 6 17 11 33 29 36 40 9 28 -19 75 -53 89 -33 14 -59 9 -157 -33
-103 -44 -179 -32 -253 37 -57 54 -64 132 -19 206 21 35 76 101 83 101 2 0 29
-14 59 -31z m-2225 -59 c0 -15 -11 -12 -32 7 -10 9 -18 25 -18 37 0 19 2 19
25 -6 14 -15 25 -32 25 -38z m668 3 c-2 -37 -7 -49 -22 -51 -27 -6 -36 9 -30
50 6 33 15 42 47 47 4 0 7 -20 5 -46z m39 -8 c-1 -42 -17 -48 -17 -7 0 24 7
42 16 42 1 0 2 -16 1 -35z m294 -28 c1 -23 4 -32 6 -19 3 14 12 22 24 22 17 0
20 -6 17 -37 -2 -27 -8 -39 -20 -41 -11 -2 -18 3 -18 12 0 25 -18 19 -22 -6
-2 -13 -10 -23 -18 -23 -12 0 -15 13 -15 56 0 88 44 122 46 36z m239 20 c0
-13 -11 -34 -25 -47 -20 -19 -27 -21 -40 -10 -22 18 -18 39 9 50 13 5 27 14
31 19 11 19 25 12 25 -12z m-326 -60 c-8 -57 -30 -58 -27 -1 4 52 11 70 23 58
6 -6 7 -31 4 -57z m166 11 c-1 -28 -2 -30 -11 -15 -6 10 -8 25 -5 33 9 24 16
16 16 -18z m290 2 c0 -11 -7 -20 -15 -20 -13 0 -14 4 -5 20 6 11 13 20 15 20
3 0 5 -9 5 -20z m-730 -108 c30 -6 97 -16 148 -23 53 -7 91 -16 89 -22 -13
-41 -455 -100 -515 -68 -36 19 -38 56 -7 97 l28 36 101 -5 c55 -3 126 -10 156
-15z m1155 1 c14 -8 10 -17 -25 -61 -23 -29 -49 -52 -59 -52 -27 0 -257 46
-270 54 -21 13 -11 24 32 34 23 6 60 18 82 27 30 12 63 14 132 11 50 -2 99 -8
108 -13z m-400 -125 c33 -8 104 -23 158 -33 53 -9 97 -20 97 -24 0 -4 -11 -18
-25 -31 -21 -19 -31 -22 -72 -17 -218 28 -309 39 -378 47 -44 5 -109 14 -145
18 -72 10 -174 1 -265 -24 -148 -39 -185 -46 -254 -51 -64 -5 -76 -3 -88 13
-22 29 -16 34 45 34 31 0 72 4 91 10 45 13 241 37 369 45 56 4 124 13 150 20
62 18 239 14 317 -7z m-320 -128 c44 -5 163 -18 265 -27 l185 -18 -45 -31
c-40 -28 -56 -32 -141 -38 -64 -4 -134 -1 -211 9 -63 8 -206 19 -318 25 -112
5 -207 13 -212 18 -16 16 331 86 377 76 11 -2 56 -8 100 -14z m-596 -179 c-15
-5 -69 57 -68 79 0 9 17 -4 40 -30 26 -28 36 -46 28 -49z m-659 4 c37 -19 50
-43 50 -95 0 -30 -6 -47 -24 -65 -68 -68 -176 -27 -176 67 0 88 73 133 150 93z
m2197 -20 c33 -37 32 -107 -1 -140 -67 -67 -176 -27 -176 65 0 23 5 50 10 60
29 55 126 63 167 15z m-1127 0 c0 -16 -6 -25 -15 -25 -15 0 -21 31 -8 43 13
14 23 6 23 -18z m50 0 c0 -14 -4 -25 -10 -25 -5 0 -10 11 -10 25 0 14 5 25 10
25 6 0 10 -11 10 -25z m-270 -31 c0 -8 -4 -14 -10 -14 -5 0 -10 9 -10 21 0 11
5 17 10 14 6 -3 10 -13 10 -21z m36 -20 c-9 -25 -24 -7 -18 22 4 23 6 24 14
10 5 -10 7 -24 4 -32z m738 -110 c21 -8 21 -34 0 -34 -26 0 -72 -54 -84 -100
-9 -33 -9 -58 0 -107 7 -34 16 -63 21 -63 5 0 9 7 9 15 0 8 13 29 29 47 24 27
36 33 70 33 52 0 89 -28 124 -95 31 -61 37 -152 12 -200 -47 -90 -157 -103
-235 -27 -41 39 -95 150 -111 226 -22 106 18 221 99 284 38 29 42 30 66 21z
m-952 -70 c3 -2 -40 -100 -96 -217 -57 -116 -106 -222 -109 -235 -4 -19 1 -27
29 -44 19 -11 34 -24 34 -29 0 -22 -31 -18 -96 14 -38 19 -93 45 -121 57 -29
12 -53 27 -53 32 0 15 29 20 58 10 16 -5 34 -7 40 -3 15 9 182 350 182 372 0
5 -27 9 -60 9 -60 0 -66 4 -54 35 6 15 20 16 123 10 64 -4 119 -9 123 -11z
m660 -179 c10 -83 19 -159 20 -170 2 -16 9 -19 34 -17 26 3 32 -1 38 -20 10
-39 7 -47 -21 -50 -26 -3 -28 -6 -27 -46 1 -46 15 -64 49 -59 12 1 21 -5 23
-15 2 -13 -7 -18 -45 -23 -26 -3 -79 -12 -118 -20 -53 -10 -72 -11 -77 -2 -16
25 -12 29 45 41 24 6 27 10 27 51 0 24 -3 46 -7 48 -5 3 -44 -1 -88 -8 -44 -7
-83 -11 -87 -8 -15 9 -7 54 32 182 58 188 81 237 122 255 60 26 61 25 80 -139z
m-353 119 c59 -50 74 -108 60 -229 -22 -175 -121 -296 -257 -312 -39 -4 -50
-2 -66 16 -11 12 -17 21 -15 22 2 0 25 2 51 3 53 2 90 24 125 75 24 36 58 129
50 138 -3 3 -18 -4 -33 -16 -41 -33 -89 -28 -130 13 -32 32 -34 38 -34 103 0
82 22 135 74 181 32 28 44 32 91 32 43 0 59 -5 84 -26z"/>
<path d="M3202 23343 c-7 -3 -19 -18 -28 -35 -31 -60 3 -137 101 -226 70 -64
140 -101 205 -109 45 -5 51 -3 81 26 28 28 31 37 26 73 -11 81 -128 207 -242
259 -37 17 -114 24 -143 12z"/>
<path d="M3965 22920 c4 -19 10 -69 14 -110 6 -71 7 -74 21 -52 14 20 50 31
50 15 0 -5 15 -24 33 -43 57 -62 131 -166 142 -199 9 -28 28 -27 20 2 -15 52
-47 133 -58 147 -7 8 -21 33 -32 55 -11 22 -60 81 -108 130 -85 87 -88 89 -82
55z"/>
<path d="M4254 22416 c-7 -19 3 -36 22 -36 10 0 14 8 12 22 -4 26 -26 36 -34
14z"/>
<path d="M3875 21830 c-3 -6 1 -7 9 -4 18 7 21 14 7 14 -6 0 -13 -4 -16 -10z"/>
<path d="M3972 21608 c-15 -15 -15 -53 -1 -81 17 -32 31 -38 54 -23 11 7 32
16 48 20 62 15 7 96 -66 96 -12 0 -28 -5 -35 -12z"/>
<path d="M3990 21435 c-10 -12 -9 -16 3 -21 17 -6 37 2 37 16 0 15 -29 19 -40
5z"/>
<path d="M4040 21440 c0 -5 9 -10 21 -10 11 0 17 5 14 10 -3 6 -13 10 -21 10
-8 0 -14 -4 -14 -10z"/>
<path d="M3797 20943 c-58 -55 -64 -75 -69 -213 -3 -69 -9 -134 -13 -145 -8
-19 -7 -19 11 -2 16 15 20 37 24 135 l5 117 41 60 c22 33 44 66 48 73 14 24
-10 11 -47 -25z"/>
<path d="M3601 20104 c0 -11 3 -14 6 -6 3 7 2 16 -1 19 -3 4 -6 -2 -5 -13z"/>
<path d="M6156 22755 c-162 -66 -251 -168 -212 -243 29 -56 109 -66 220 -27
88 31 168 84 206 137 39 53 39 91 1 129 -26 26 -36 29 -93 29 -43 0 -81 -8
-122 -25z"/>
<path d="M6446 22239 c-49 -15 -91 -30 -93 -33 -10 -10 33 -66 59 -77 50 -21
134 6 158 51 15 29 2 90 -19 89 -9 -1 -56 -14 -105 -30z"/>
<path d="M6475 21738 c-115 -21 -216 -41 -224 -43 -10 -4 -11 -15 -6 -42 11
-61 32 -90 81 -113 39 -20 57 -22 122 -17 180 12 272 81 259 194 -2 25 -9 48
-13 52 -5 5 -103 -9 -219 -31z"/>
<path d="M2448 21030 c-22 -17 -28 -30 -28 -61 l0 -39 103 0 c57 0 106 2 109
5 3 3 2 20 -1 37 -9 42 -49 70 -108 75 -39 4 -53 1 -75 -17z"/>
<path d="M6447 19743 c-13 -12 -7 -58 9 -82 18 -26 87 -60 120 -61 29 0 70 34
78 66 4 15 5 28 2 31 -5 5 -177 53 -192 53 -6 0 -14 -3 -17 -7z"/>
<path d="M6231 19308 c-5 -13 -16 -40 -24 -60 -9 -21 -13 -39 -9 -42 11 -7
212 -19 212 -13 0 6 -157 137 -165 137 -3 0 -9 -10 -14 -22z"/>
<path d="M5142 17918 c-30 -30 9 -157 60 -192 49 -35 92 -11 90 49 -1 35 -32
106 -60 138 -17 20 -72 23 -90 5z"/>
<path d="M4727 17923 c-19 -59 -38 -121 -41 -136 l-7 -29 43 7 c69 11 78 15
78 38 -1 41 -26 217 -32 223 -4 3 -22 -43 -41 -103z"/>
<path d="M4403 18075 c-21 -15 -43 -82 -43 -134 0 -44 20 -81 48 -88 53 -13
82 32 82 130 0 54 -4 71 -20 87 -24 24 -38 25 -67 5z"/>
<path d="M11395 22234 c-100 -52 -133 -171 -72 -262 12 -18 45 -44 75 -59 125
-61 260 12 270 146 8 115 -65 191 -184 191 -34 0 -72 -7 -89 -16z"/>
<path d="M16673 22225 c-108 -65 -109 -231 -2 -302 82 -54 213 -32 264 46 62
94 26 226 -72 267 -54 23 -141 18 -190 -11z"/>
<path d="M32125 22234 c-100 -52 -133 -171 -72 -262 26 -38 107 -82 151 -82
116 0 196 76 196 186 0 65 -25 111 -79 145 -37 24 -56 29 -105 29 -36 0 -74
-7 -91 -16z"/>
<path d="M21633 22229 c-141 -24 -247 -98 -298 -211 -24 -53 -30 -79 -33 -165
l-4 -103 -69 0 -69 0 0 -130 0 -130 70 0 70 0 0 -480 0 -480 155 0 155 0 0
480 0 480 105 0 105 0 0 130 0 130 -106 0 -107 0 5 71 c8 106 43 143 148 156
l50 6 0 128 0 129 -62 -1 c-35 -1 -86 -5 -115 -10z"/>
<path d="M23360 21345 l0 -815 155 0 154 0 3 393 c3 390 3 392 27 437 49 94
107 131 217 138 127 8 219 -42 267 -147 21 -44 22 -62 25 -433 l3 -388 155 0
154 0 0 388 c0 216 -5 416 -10 452 -14 86 -68 198 -125 258 -164 177 -491 186
-671 20 l-44 -41 0 277 0 276 -155 0 -155 0 0 -815z"/>
<path d="M31450 21873 l0 -287 -42 40 c-60 57 -97 81 -175 111 -58 23 -84 27
-178 27 -90 1 -122 -3 -178 -22 -179 -62 -309 -209 -363 -412 -24 -88 -24
-281 -1 -370 73 -279 280 -450 545 -450 132 0 266 54 347 141 l45 48 0 -84 0
-85 155 0 155 0 0 815 0 815 -155 0 -155 0 0 -287z m-265 -384 c70 -13 101
-28 151 -71 164 -145 149 -462 -28 -581 -170 -114 -393 -42 -470 152 -18 45
-22 76 -23 156 0 89 3 107 28 160 55 117 135 173 278 194 3 1 32 -4 64 -10z"/>
<path d="M32650 21345 l0 -815 155 0 155 0 0 815 0 815 -155 0 -155 0 0 -815z"/>
<path d="M33250 21345 l0 -815 155 0 155 0 0 815 0 815 -155 0 -155 0 0 -815z"/>
<path d="M27270 22084 c-156 -18 -323 -86 -428 -173 -177 -147 -272 -359 -272
-607 0 -132 12 -203 51 -305 91 -236 275 -396 529 -460 114 -29 337 -24 445
11 213 68 387 230 464 433 l11 27 -179 0 -178 0 -37 -54 c-172 -250 -593 -204
-731 78 -41 83 -55 152 -55 266 0 161 38 271 126 369 89 99 255 154 398 131
120 -19 201 -67 263 -157 l36 -53 179 0 178 0 -20 50 c-78 199 -272 364 -490
419 -76 19 -227 32 -290 25z"/>
<path d="M8364 22056 c-3 -8 -4 -250 -2 -537 5 -576 4 -570 69 -707 62 -129
203 -235 369 -279 88 -23 272 -23 360 0 226 60 377 209 431 427 11 43 14 168
14 580 l0 525 -155 0 -155 0 -5 -535 -5 -535 -24 -48 c-29 -59 -89 -111 -150
-132 -50 -16 -177 -22 -226 -10 -84 21 -155 83 -188 165 -22 54 -22 63 -25
578 l-3 522 -150 0 c-119 0 -151 -3 -155 -14z"/>
<path d="M17260 21900 l0 -150 -70 0 -70 0 0 -130 0 -130 70 0 70 0 0 -320 c0
-198 4 -339 11 -372 16 -77 52 -140 103 -185 70 -61 124 -75 314 -81 l162 -4
0 130 0 130 -110 4 c-104 3 -111 4 -137 31 l-28 27 -3 320 -3 319 138 3 138 3
3 128 3 127 -141 0 -140 0 0 150 0 150 -155 0 -155 0 0 -150z"/>
<path d="M22570 21900 l0 -150 -75 0 -76 0 3 -127 3 -128 72 -3 72 -3 3 -357
3 -357 33 -67 c38 -77 83 -119 162 -150 46 -18 81 -22 218 -26 l162 -4 0 131
0 131 -95 0 c-107 0 -144 12 -163 55 -8 18 -12 117 -12 335 l0 310 135 0 135
0 0 130 0 130 -135 0 -135 0 0 150 0 150 -155 0 -155 0 0 -150z"/>
<path d="M10454 21755 c-78 -17 -154 -56 -210 -107 l-44 -41 0 72 0 71 -155 0
-155 0 0 -610 0 -610 155 0 155 0 0 374 c0 403 2 417 55 498 14 20 46 50 72
65 44 25 57 28 143 28 86 0 99 -3 143 -28 26 -15 59 -45 73 -67 51 -77 54
-104 54 -502 l0 -368 155 0 155 0 0 403 c0 435 -4 473 -56 583 -89 188 -315
288 -540 239z"/>
<path d="M13601 21754 c-203 -44 -361 -187 -428 -388 -24 -73 -27 -95 -27
-226 0 -131 3 -153 27 -226 88 -266 320 -417 616 -401 166 8 285 59 392 166
60 60 113 143 133 209 l7 22 -170 0 c-160 0 -170 -1 -176 -20 -10 -30 -89 -95
-133 -108 -22 -7 -66 -12 -99 -12 -119 0 -203 51 -252 153 -17 34 -31 76 -33
92 l-3 30 448 3 447 2 0 109 c0 191 -44 311 -159 433 -137 146 -370 210 -590
162z m263 -265 c65 -24 136 -96 154 -157 24 -78 45 -72 -273 -72 -327 0 -307
-8 -254 98 33 66 84 114 146 137 58 21 163 19 227 -6z"/>
<path d="M15150 21756 c-84 -18 -149 -54 -212 -117 l-58 -57 0 84 0 85 -157
-3 -158 -3 -3 -607 -2 -608 160 0 160 0 0 348 c0 399 4 426 70 492 49 49 116
70 222 70 l78 0 0 165 c0 189 9 175 -100 151z"/>
<path d="M15736 21754 c-234 -51 -368 -225 -327 -426 32 -153 131 -220 459
-308 130 -35 185 -60 208 -95 21 -32 13 -89 -17 -121 -56 -60 -216 -66 -296
-11 -19 12 -45 45 -60 75 l-26 53 -151 -3 -151 -3 3 -35 c12 -116 110 -243
236 -305 133 -66 311 -83 460 -45 102 26 167 62 226 127 61 66 85 133 84 230
-1 90 -35 164 -101 223 -63 55 -128 84 -306 134 -182 52 -214 65 -246 100 -48
52 -22 136 50 162 48 18 143 17 187 -2 49 -20 89 -59 102 -100 l11 -33 145 -3
c80 -2 147 -2 149 0 5 6 -14 90 -34 142 -73 195 -337 301 -605 244z"/>
<path d="M20287 21755 c-110 -22 -228 -85 -306 -163 -120 -121 -175 -263 -175
-452 0 -192 48 -321 165 -445 116 -122 270 -185 448 -185 300 1 534 169 617
445 26 84 26 286 0 369 -33 111 -77 187 -152 263 -147 150 -370 213 -597 168z
m268 -284 c24 -11 65 -40 89 -66 141 -145 121 -449 -37 -565 -92 -68 -228 -78
-327 -24 -103 56 -151 146 -158 295 -4 80 -1 109 17 170 19 61 31 81 79 129
44 43 70 60 112 73 68 21 163 16 225 -12z"/>
<path d="M25185 21756 c-273 -63 -435 -249 -464 -531 -42 -417 211 -715 609
-715 260 0 471 140 559 373 l11 27 -168 0 -168 0 -31 -44 c-21 -29 -49 -52
-87 -71 -51 -25 -64 -27 -139 -23 -57 3 -94 11 -122 25 -76 40 -135 123 -150
211 l-7 42 446 0 445 0 7 36 c9 49 -2 196 -21 264 -50 186 -185 327 -368 386
-101 32 -260 41 -352 20z m276 -275 c78 -40 126 -104 144 -188 l7 -33 -290 0
-290 0 10 38 c28 100 94 173 188 203 49 16 183 5 231 -20z"/>
<path d="M28725 21755 c-315 -68 -501 -323 -482 -660 12 -220 115 -403 282
-501 134 -78 337 -105 495 -65 240 60 403 220 456 449 24 103 15 295 -18 389
-34 95 -107 203 -176 260 -144 118 -369 169 -557 128z m246 -276 c30 -9 62
-31 100 -69 77 -76 101 -142 101 -270 0 -128 -24 -194 -101 -270 -62 -62 -128
-90 -210 -90 -159 0 -274 108 -301 284 -46 294 150 492 411 415z"/>
<path d="M30290 21759 c-74 -15 -166 -66 -225 -127 l-55 -56 0 87 0 87 -155 0
-155 0 0 -610 0 -610 155 0 155 0 0 343 c0 381 5 417 62 483 51 58 99 76 211
82 l97 5 0 163 c0 186 8 172 -90 153z"/>
<path d="M34229 21755 c-220 -44 -384 -201 -446 -426 -13 -46 -18 -101 -18
-194 0 -117 3 -139 29 -219 88 -268 317 -419 615 -403 107 5 162 20 266 68 74
34 194 158 233 240 18 37 32 72 32 78 0 8 -52 11 -169 11 -158 0 -170 -1 -176
-19 -10 -31 -90 -99 -131 -110 -56 -15 -154 -13 -204 4 -90 32 -163 122 -176
219 l-7 46 448 0 447 0 -4 133 c-6 154 -26 230 -87 324 -56 87 -125 148 -216
194 -133 66 -283 84 -436 54z m255 -265 c89 -34 166 -132 166 -212 0 -17 -20
-18 -285 -18 -176 0 -285 4 -285 10 0 5 9 34 21 65 25 67 92 137 151 158 63
23 167 21 232 -3z"/>
<path d="M35771 21759 c-78 -15 -169 -65 -227 -124 l-54 -56 0 86 0 85 -155 0
-155 0 0 -610 0 -610 155 0 154 0 3 363 c3 348 4 364 25 409 44 95 103 128
246 135 l97 6 0 163 c0 186 8 172 -89 153z"/>
<path d="M36415 21759 c-27 -6 -84 -26 -125 -46 -142 -68 -250 -207 -297 -383
-24 -89 -24 -290 1 -380 71 -265 281 -440 527 -440 141 0 264 46 356 133 l53
50 0 -82 0 -81 155 0 155 0 0 610 0 610 -155 0 -155 0 0 -81 0 -82 -47 44
c-61 57 -106 84 -179 110 -69 24 -215 33 -289 18z m307 -285 c67 -22 131 -83
170 -162 31 -63 33 -73 33 -172 0 -94 -3 -111 -29 -167 -33 -72 -95 -134 -164
-166 -72 -33 -180 -31 -254 6 -154 75 -226 269 -169 455 23 76 86 158 145 189
77 42 172 47 268 17z"/>
<path d="M37830 21754 c-136 -29 -252 -111 -301 -211 -17 -34 -25 -70 -27
-125 -5 -107 16 -167 82 -233 60 -60 129 -95 258 -131 306 -84 338 -101 338
-179 0 -75 -69 -120 -185 -119 -104 1 -191 57 -210 137 l-7 27 -155 0 -156 0
7 -47 c15 -112 115 -240 229 -296 178 -87 413 -89 578 -7 126 63 199 174 199
303 0 80 -13 125 -53 183 -61 88 -145 130 -391 199 -189 53 -236 82 -236 147
0 75 63 118 171 118 103 -1 167 -39 193 -115 l13 -36 144 0 144 0 -2 38 c-5
112 -101 246 -216 303 -117 57 -279 74 -417 44z"/>
<path d="M11330 21140 l0 -610 155 0 155 0 0 610 0 610 -155 0 -155 0 0 -610z"/>
<path d="M11790 21744 c0 -6 146 -404 250 -684 40 -108 157 -425 181 -493 l13
-37 190 2 191 3 57 155 c32 85 80 216 108 290 27 74 77 209 110 300 136 364
162 436 167 453 5 16 -7 17 -160 17 l-166 0 -21 -67 c-11 -38 -80 -247 -152
-467 l-132 -399 -153 467 -154 466 -164 0 c-91 0 -165 -3 -165 -6z"/>
<path d="M16620 21140 l0 -610 155 0 155 0 0 610 0 610 -155 0 -155 0 0 -610z"/>
<path d="M17929 21703 c10 -27 56 -138 101 -248 46 -110 102 -247 125 -305 24
-58 88 -214 143 -348 l100 -243 -80 -182 c-43 -100 -101 -233 -128 -295 -28
-61 -50 -117 -50 -122 0 -7 57 -10 163 -8 l162 3 213 505 c276 657 422 1005
488 1163 l53 127 -166 -2 -166 -3 -156 -417 c-137 -368 -171 -448 -171 -408 0
6 -68 195 -151 420 l-152 410 -173 0 -174 0 19 -47z"/>
<path d="M32060 21140 l0 -610 155 0 155 0 0 610 0 610 -155 0 -155 0 0 -610z"/>
<path d="M13783 19875 c-73 -31 -49 -135 32 -135 84 0 105 111 27 138 -20 7
-37 6 -59 -3z"/>
<path d="M32322 19871 c-28 -10 -62 -27 -73 -37 -34 -30 -60 -98 -66 -174 l-6
-70 -53 0 -54 0 0 -45 0 -45 55 0 55 0 0 -350 0 -350 55 0 55 0 0 350 0 350
90 0 90 0 0 45 0 45 -90 0 -90 0 0 60 c0 34 7 74 15 89 17 34 70 61 119 61 36
0 36 0 36 45 l0 45 -42 0 c-24 -1 -67 -9 -96 -19z"/>
<path d="M35745 19876 c-100 -31 -137 -83 -145 -201 l-5 -80 -55 -5 -55 -5 -3
-42 -3 -43 60 0 61 0 0 -350 0 -350 50 0 50 0 0 350 0 350 90 0 90 0 0 45 0
45 -90 0 -90 0 0 58 c0 93 39 140 123 149 l45 5 4 44 3 44 -45 -1 c-25 0 -63
-6 -85 -13z"/>
<path d="M36212 19878 c-56 -12 -126 -78 -141 -133 -6 -22 -11 -66 -11 -97 l0
-58 -55 0 -55 0 0 -45 0 -45 55 0 55 0 0 -350 0 -350 50 0 50 0 0 350 0 350
90 0 90 0 0 45 0 45 -91 0 -92 0 5 65 c3 36 13 77 23 91 20 31 71 54 120 54
35 0 35 0 35 45 l0 45 -42 -1 c-24 -1 -62 -5 -86 -11z"/>
<path d="M36529 19878 c-25 -8 -49 -44 -49 -72 0 -7 9 -25 21 -40 27 -35 90
-37 113 -4 46 65 -10 141 -85 116z"/>
<path d="M18850 19651 l0 -219 -63 63 c-55 55 -73 66 -136 85 -56 17 -88 21
-139 17 -147 -11 -246 -77 -309 -205 -38 -75 -38 -77 -38 -196 0 -115 2 -124
31 -187 42 -89 93 -142 171 -181 155 -76 361 -33 449 94 l29 41 3 -81 3 -82
49 0 50 0 0 535 0 535 -50 0 -50 0 0 -219z m-165 -174 c86 -44 136 -114 156
-221 25 -139 -34 -276 -149 -344 -42 -24 -57 -27 -137 -27 -103 0 -145 16
-206 82 -48 49 -65 85 -79 161 -29 162 48 316 182 364 73 26 165 20 233 -15z"/>
<path d="M22110 19335 l0 -535 49 0 49 0 4 263 c3 179 8 271 17 292 42 102
121 155 228 155 102 0 170 -39 216 -125 21 -38 22 -56 25 -312 l3 -273 50 0
50 0 -3 288 -3 287 -28 57 c-58 117 -163 174 -305 166 -94 -6 -156 -31 -211
-88 l-41 -42 0 201 0 201 -50 0 -50 0 0 -535z"/>
<path d="M24860 19335 l0 -535 50 0 50 0 0 535 0 535 -50 0 -50 0 0 -535z"/>
<path d="M34756 19804 c-168 -41 -299 -170 -351 -347 -22 -77 -22 -227 0 -304
75 -259 316 -404 586 -353 130 25 266 124 327 238 81 152 84 371 7 523 -36 69
-125 161 -193 197 -110 59 -251 76 -376 46z m276 -104 c169 -63 271 -263 239
-469 -23 -149 -98 -256 -221 -315 -59 -28 -74 -31 -165 -31 -88 0 -107 3 -157
27 -80 37 -122 71 -161 131 -115 176 -95 439 44 576 107 105 273 137 421 81z"/>
<path d="M8410 19306 l0 -506 55 0 55 0 -2 503 -3 502 -52 3 -53 3 0 -505z"/>
<path d="M19510 19765 l0 -45 140 0 140 0 0 -460 0 -460 50 0 50 0 0 460 0
460 140 0 140 0 0 45 0 45 -330 0 -330 0 0 -45z"/>
<path d="M28190 19765 l0 -45 140 0 140 0 0 -460 0 -460 50 0 50 0 0 460 0
460 140 0 140 0 0 45 0 45 -330 0 -330 0 0 -45z"/>
<path d="M13280 19691 l0 -101 -55 0 -55 0 0 -45 0 -45 54 0 55 0 3 -297 c3
-294 3 -298 26 -331 38 -52 74 -65 190 -70 l103 -4 -3 43 -3 44 -82 5 c-133 8
-127 -7 -131 330 l-3 280 111 0 111 0 -3 43 -3 42 -107 3 -107 3 -3 97 -3 97
-47 3 -48 3 0 -100z"/>
<path d="M8992 19581 c-54 -19 -78 -35 -124 -86 l-27 -30 -1 63 0 62 -50 0
-50 0 0 -395 0 -395 49 0 48 0 6 258 c6 283 10 309 66 374 47 55 100 78 182
78 116 0 199 -60 228 -166 7 -23 11 -141 11 -291 l0 -253 51 0 50 0 -3 288
c-3 278 -4 289 -27 340 -31 69 -106 137 -174 157 -68 20 -170 19 -235 -4z"/>
<path d="M9902 19581 c-54 -19 -78 -35 -124 -86 l-27 -30 -1 63 0 62 -50 0
-50 0 0 -395 0 -395 49 0 48 0 6 258 c6 283 10 309 66 374 47 55 100 78 182
78 116 0 199 -60 228 -166 7 -23 11 -141 11 -291 l0 -253 51 0 50 0 -3 288
c-3 278 -4 289 -27 340 -31 69 -106 137 -174 157 -68 20 -170 19 -235 -4z"/>
<path d="M10800 19586 c-135 -39 -216 -116 -260 -247 -18 -54 -21 -81 -18
-169 3 -93 7 -112 36 -171 38 -78 100 -140 180 -177 51 -24 69 -27 167 -27 94
0 117 3 160 23 115 53 183 126 216 233 24 75 25 205 3 280 -32 111 -122 207
-229 244 -64 23 -196 28 -255 11z m197 -91 c78 -23 127 -64 162 -137 80 -166
32 -362 -107 -441 -146 -82 -337 -23 -403 125 -32 73 -33 230 -2 298 62 137
202 199 350 155z"/>
<path d="M12517 19589 c-103 -24 -198 -104 -244 -206 -30 -65 -43 -185 -30
-273 18 -124 97 -234 205 -287 51 -25 67 -28 162 -28 86 0 113 4 151 21 53 25
115 77 141 119 l18 30 0 -82 0 -83 50 0 50 0 0 395 0 395 -50 0 -50 0 0 -82 0
-83 -19 31 c-66 109 -236 168 -384 133z m248 -114 c107 -52 161 -161 153 -306
-6 -103 -43 -178 -112 -230 -61 -46 -117 -63 -198 -57 -77 5 -130 29 -185 85
-116 116 -106 375 19 476 89 71 217 84 323 32z"/>
<path d="M14330 19586 c-114 -32 -193 -98 -243 -204 -30 -64 -32 -73 -32 -187
0 -101 4 -129 23 -177 32 -80 99 -150 180 -190 63 -31 72 -33 177 -33 108 0
113 1 187 38 121 59 187 153 206 292 31 229 -86 418 -290 465 -58 13 -153 11
-208 -4z m248 -112 c129 -67 186 -249 128 -412 -64 -180 -307 -242 -454 -116
-136 116 -134 395 5 501 90 69 217 80 321 27z"/>
<path d="M15261 19579 c-33 -13 -72 -39 -98 -66 l-43 -45 0 61 0 61 -50 0 -50
0 0 -395 0 -395 50 0 50 0 0 223 c0 291 12 356 77 421 44 45 99 66 174 66 96
0 160 -35 203 -110 l31 -55 3 -272 3 -273 50 0 50 0 -3 288 c-3 267 -4 290
-24 333 -30 64 -79 116 -138 146 -72 37 -206 43 -285 12z"/>
<path d="M16557 19589 c-103 -24 -197 -103 -245 -207 -25 -53 -27 -67 -27
-187 0 -127 1 -132 33 -197 40 -81 92 -135 169 -173 53 -28 67 -30 163 -30 86
0 113 4 151 21 53 25 115 77 141 119 l18 30 0 -82 0 -83 50 0 50 0 0 395 0
395 -50 0 -50 0 0 -82 0 -83 -19 31 c-66 109 -236 168 -384 133z m248 -114
c107 -52 161 -161 153 -306 -6 -102 -43 -178 -112 -230 -58 -44 -104 -59 -184
-59 -158 0 -282 139 -282 316 0 66 30 164 64 208 77 101 236 133 361 71z"/>
<path d="M17545 19583 c-30 -11 -68 -36 -97 -63 l-48 -46 0 58 0 59 -52 -3
-53 -3 0 -390 0 -390 53 -3 52 -3 0 250 c0 272 6 311 57 380 35 46 114 81 184
81 105 0 176 -41 215 -124 23 -50 24 -58 24 -318 l0 -268 56 0 56 0 -4 278
c-4 254 -6 281 -26 332 -49 124 -136 182 -281 187 -62 2 -100 -2 -136 -14z"/>
<path d="M20552 19585 c-112 -31 -176 -86 -229 -193 -38 -75 -38 -77 -38 -196
0 -115 2 -124 31 -187 18 -37 49 -85 69 -108 90 -99 264 -138 416 -91 63 19
81 30 134 83 42 43 67 77 78 110 l16 47 -54 0 -53 0 -22 -45 c-39 -81 -119
-125 -226 -125 -89 0 -136 16 -190 63 -51 45 -81 97 -93 162 l-8 45 326 2 326
3 -1 85 c-1 63 -7 100 -23 143 -31 79 -109 157 -188 187 -75 29 -199 35 -271
15z m213 -92 c93 -31 151 -109 169 -225 l5 -28 -278 0 -278 0 8 45 c32 171
204 266 374 208z"/>
<path d="M21440 19584 c-68 -18 -141 -64 -180 -114 -99 -125 -116 -332 -41
-485 37 -74 92 -127 170 -164 50 -23 68 -26 166 -26 100 0 116 3 170 28 33 15
77 45 98 65 42 40 87 119 87 152 0 17 -6 20 -50 20 -48 0 -50 -1 -65 -37 -21
-50 -70 -101 -120 -124 -47 -22 -156 -25 -216 -7 -54 16 -115 70 -147 132 -25
47 -27 60 -27 171 0 114 1 123 30 174 16 29 45 66 64 82 130 107 355 62 416
-83 15 -37 17 -38 65 -38 58 0 61 9 29 80 -67 148 -262 224 -449 174z"/>
<path d="M23261 19579 c-33 -13 -72 -39 -98 -66 l-43 -45 0 61 0 61 -50 0 -50
0 0 -395 0 -395 49 0 49 0 4 263 c3 179 8 271 17 292 42 102 121 155 228 155
102 0 170 -39 216 -125 21 -38 22 -56 25 -312 l3 -273 50 0 50 0 -3 288 c-3
267 -4 290 -24 333 -30 64 -79 116 -138 146 -72 37 -206 43 -285 12z"/>
<path d="M24160 19585 c-149 -42 -245 -156 -270 -323 -30 -190 57 -365 218
-440 51 -24 69 -27 167 -27 100 0 116 3 172 29 82 37 161 120 194 201 20 50
23 77 23 170 0 92 -3 120 -23 170 -33 84 -124 174 -206 205 -78 29 -200 36
-275 15z m209 -91 c73 -21 143 -88 172 -163 46 -120 21 -285 -57 -365 -62 -64
-106 -81 -209 -81 -107 0 -150 18 -213 90 -103 118 -93 358 20 460 77 70 180
91 287 59z"/>
<path d="M25420 19585 c-75 -22 -130 -56 -183 -115 -58 -64 -88 -142 -95 -244
-12 -185 59 -321 205 -393 74 -37 80 -38 182 -38 128 0 193 22 269 90 214 193
153 587 -106 686 -75 28 -198 34 -272 14z m246 -108 c99 -50 154 -151 154
-282 0 -100 -28 -174 -89 -235 -86 -86 -217 -106 -330 -49 -107 53 -154 141
-154 284 0 110 23 171 88 235 85 83 222 102 331 47z"/>
<path d="M26347 19589 c-126 -30 -222 -127 -262 -263 -24 -81 -17 -229 14
-308 31 -80 104 -157 183 -194 56 -26 74 -29 163 -29 89 0 106 3 156 28 31 15
77 50 103 77 26 28 48 50 49 50 1 0 0 -62 -3 -137 -5 -129 -7 -141 -33 -186
-34 -58 -98 -102 -171 -117 -125 -26 -270 35 -312 130 -18 39 -19 40 -71 40
l-53 0 19 -51 c53 -139 178 -213 361 -212 170 0 289 79 346 228 18 46 19 82
19 495 l0 445 -50 0 -50 0 0 -73 c0 -39 0 -72 0 -72 -1 0 -28 27 -62 59 -50
49 -73 63 -128 80 -70 22 -152 26 -218 10z m215 -99 c70 -26 117 -66 153 -131
28 -51 30 -61 30 -164 0 -100 -2 -115 -27 -161 -74 -141 -243 -195 -385 -124
-107 54 -157 144 -158 285 0 82 3 96 33 157 36 74 80 114 157 140 66 23 133
22 197 -2z"/>
<path d="M29260 19584 c-56 -20 -106 -57 -131 -98 l-19 -31 0 68 0 67 -50 0
-50 0 0 -395 0 -395 49 0 50 0 3 268 c3 238 5 271 22 302 42 79 90 110 181
119 l60 6 3 53 3 52 -38 0 c-21 -1 -58 -8 -83 -16z"/>
<path d="M29758 19586 c-108 -31 -179 -94 -232 -206 -29 -61 -31 -72 -31 -185
0 -114 2 -123 31 -186 43 -89 93 -142 172 -181 155 -76 360 -33 448 94 l29 41
3 -81 3 -82 49 0 50 0 0 395 0 395 -50 0 -50 0 0 -82 -1 -83 -22 30 c-40 54
-91 95 -147 116 -68 27 -187 34 -252 15z m257 -109 c102 -52 158 -150 159
-277 0 -132 -50 -228 -152 -288 -42 -24 -57 -27 -137 -27 -103 0 -145 16 -206
82 -48 50 -65 86 -79 164 -38 216 99 388 300 376 44 -3 81 -12 115 -30z"/>
<path d="M30751 19579 c-33 -13 -72 -39 -98 -66 l-43 -45 0 61 0 61 -50 0 -50
0 0 -395 0 -395 50 0 50 0 0 238 c0 167 4 253 13 290 31 117 115 182 236 182
80 0 134 -23 178 -73 55 -63 63 -110 63 -389 l0 -248 50 0 50 0 0 264 c0 235
-2 271 -20 328 -24 79 -74 139 -144 175 -72 37 -206 43 -285 12z"/>
<path d="M31568 19586 c-131 -35 -204 -149 -168 -262 26 -81 97 -130 245 -170
113 -30 189 -65 205 -93 16 -31 12 -91 -10 -121 -30 -42 -78 -60 -157 -60
-105 1 -181 45 -199 117 -6 20 -12 23 -59 23 l-53 0 8 -35 c29 -127 156 -202
328 -193 95 5 135 20 190 72 47 44 64 80 64 140 1 117 -51 163 -261 229 -164
51 -201 78 -201 148 0 55 21 86 74 110 110 50 254 -1 272 -96 6 -35 6 -35 61
-35 l55 0 -7 33 c-3 17 -16 52 -29 77 -51 104 -211 156 -358 116z"/>
<path d="M32855 19586 c-151 -38 -249 -152 -275 -322 -30 -190 57 -367 215
-441 54 -25 70 -28 170 -28 105 0 114 2 177 33 72 35 128 91 159 157 28 61 26
65 -35 65 -47 0 -55 -3 -60 -22 -10 -40 -68 -100 -120 -124 -65 -31 -180 -33
-241 -5 -86 39 -146 118 -161 210 l-7 41 328 0 327 0 -4 98 c-5 114 -25 167
-89 237 -91 98 -238 137 -384 101z m243 -111 c29 -16 64 -44 78 -63 28 -36 54
-108 54 -149 l0 -23 -275 0 c-221 0 -275 3 -275 13 0 7 7 36 15 64 38 128 138
196 281 189 54 -2 82 -9 122 -31z"/>
<path d="M33779 19586 c-57 -20 -107 -55 -126 -87 -10 -16 -21 -29 -25 -29 -4
0 -8 27 -8 60 l0 60 -50 0 -50 0 0 -395 0 -395 49 0 49 0 4 263 c4 219 7 268
22 302 35 81 102 124 194 125 l52 0 0 55 0 55 -37 0 c-21 -1 -54 -7 -74 -14z"/>
<path d="M37048 19581 c-129 -42 -205 -122 -243 -255 -24 -81 -17 -229 14
-308 31 -80 104 -157 183 -194 57 -26 73 -29 173 -29 98 0 116 3 165 26 78 36
124 80 160 151 41 84 40 88 -22 88 l-53 0 -19 -45 c-21 -53 -80 -107 -135
-123 -59 -18 -169 -15 -216 7 -55 25 -103 75 -134 141 -23 48 -26 68 -26 155
1 79 5 110 22 146 45 101 124 158 228 167 122 9 232 -49 266 -142 13 -35 14
-36 66 -36 63 0 64 4 22 88 -57 114 -155 171 -309 178 -65 3 -99 0 -142 -15z"/>
<path d="M37940 19585 c-64 -18 -139 -64 -176 -107 -130 -155 -124 -427 13
-578 87 -97 263 -136 412 -91 88 27 172 99 208 179 12 29 23 55 23 57 0 3 -24
5 -54 5 l-54 0 -22 -45 c-40 -83 -119 -125 -232 -125 -146 1 -251 86 -277 225
l-8 45 326 2 326 3 -1 85 c-1 64 -7 100 -24 145 -31 79 -107 155 -187 185 -76
29 -199 35 -273 15z m224 -95 c87 -33 145 -108 160 -207 l6 -43 -279 0 -278 0
8 45 c32 174 210 269 383 205z"/>
<path d="M11400 19582 c0 -4 69 -181 154 -392 l155 -385 59 -3 60 -3 156 391
c86 214 156 392 156 395 0 3 -24 5 -54 5 -48 0 -56 -3 -62 -22 -3 -13 -37
-102 -74 -198 -37 -96 -93 -240 -123 -320 l-56 -145 -19 45 c-10 25 -70 179
-132 343 l-114 297 -53 0 c-29 0 -53 -4 -53 -8z"/>
<path d="M13767 19584 c-4 -4 -7 -182 -7 -396 l0 -388 55 0 55 0 -2 393 -3
392 -45 3 c-25 2 -49 0 -53 -4z"/>
<path d="M26990 19582 c0 -9 8 -30 279 -687 l37 -90 -73 -179 c-40 -99 -73
-184 -73 -188 0 -5 23 -8 52 -6 l52 3 67 165 c36 91 137 341 224 555 86 215
161 400 166 413 8 21 6 22 -45 22 l-53 0 -78 -202 c-150 -392 -178 -459 -185
-451 -4 4 -65 153 -135 331 l-127 322 -54 0 c-30 0 -54 -4 -54 -8z"/>
<path d="M36510 19195 l0 -395 50 0 50 0 0 395 0 395 -50 0 -50 0 0 -395z"/>
</g>
</svg>
